<?xml version="1.0" encoding="UTF-8" standalone="no"?>
<!-- Created with Inkscape (http://www.inkscape.org/) -->

<svg
   xmlns:dc="http://purl.org/dc/elements/1.1/"
   xmlns:cc="http://creativecommons.org/ns#"
   xmlns:rdf="http://www.w3.org/1999/02/22-rdf-syntax-ns#"
   xmlns:svg="http://www.w3.org/2000/svg"
   xmlns="http://www.w3.org/2000/svg"
   xmlns:xlink="http://www.w3.org/1999/xlink"
   xmlns:sodipodi="http://sodipodi.sourceforge.net/DTD/sodipodi-0.dtd"
   xmlns:inkscape="http://www.inkscape.org/namespaces/inkscape"
   sodipodi:docname="gfx.svg"
   inkscape:version="0.48.4 r9939"
   version="1.1"
   id="svg2"
   height="1052.3622047"
   width="744.09448819">
  <defs
     id="defs4">
    <inkscape:path-effect
       effect="skeletal"
       id="path-effect4672"
       is_visible="true"
       pattern="M 0,5 C 0,2.24 2.24,0 5,0 7.76,0 10,2.24 10,5 10,7.76 7.76,10 5,10 2.24,10 0,7.76 0,5 z"
       copytype="single_stretched"
       prop_scale="1"
       scale_y_rel="false"
       spacing="0"
       normal_offset="0"
       tang_offset="0"
       prop_units="false"
       vertical_pattern="false"
       fuse_tolerance="0" />
    <inkscape:path-effect
       effect="skeletal"
       id="path-effect4668"
       is_visible="true"
       pattern="M 0,5 C 0,2.24 2.24,0 5,0 7.76,0 10,2.24 10,5 10,7.76 7.76,10 5,10 2.24,10 0,7.76 0,5 z"
       copytype="single_stretched"
       prop_scale="1"
       scale_y_rel="false"
       spacing="0"
       normal_offset="0"
       tang_offset="0"
       prop_units="false"
       vertical_pattern="false"
       fuse_tolerance="0" />
    <linearGradient
       id="linearGradient4656">
      <stop
         style="stop-color:#1fa1c4;stop-opacity:1;"
         offset="0"
         id="stop4658" />
      <stop
         style="stop-color:#bee9f5;stop-opacity:1;"
         offset="1"
         id="stop4660" />
    </linearGradient>
    <inkscape:path-effect
       effect="skeletal"
       id="path-effect3021"
       is_visible="true"
       pattern="m 338.4011,62.326162 c 0,-11.093762 30.7768,-15.859144 33.5368,-15.859144 2.76,0 68.27745,13.099144 68.27745,15.859144 0,2.76 -64.50729,16.793795 -67.26729,16.793795 -2.76,0 -34.54696,-5.700045 -34.54696,-16.793795 z"
       copytype="single_stretched"
       prop_scale="1"
       scale_y_rel="false"
       spacing="0"
       normal_offset="0"
       tang_offset="0"
       prop_units="false"
       vertical_pattern="false"
       fuse_tolerance="0"
       pattern-nodetypes="sssss" />
    <inkscape:path-effect
       effect="spiro"
       id="path-effect3019"
       is_visible="true" />
    <inkscape:path-effect
       effect="skeletal"
       id="path-effect3014"
       is_visible="true"
       pattern="m 359.34382,96.765434 c 0,-2.760001 2.49253,-27.980969 5.25253,-27.980969 2.76,0 4.74747,25.220968 4.74747,27.980969 0,2.76 -2.24,8.535536 -5,8.535536 -2.76,0 -5,-5.775536 -5,-8.535536 z"
       copytype="single_stretched"
       prop_scale="1"
       scale_y_rel="false"
       spacing="0"
       normal_offset="0"
       tang_offset="0"
       prop_units="false"
       vertical_pattern="false"
       fuse_tolerance="0"
       pattern-nodetypes="sssss" />
    <inkscape:path-effect
       effect="spiro"
       id="path-effect3012"
       is_visible="true" />
    <inkscape:path-effect
       effect="skeletal"
       id="path-effect3791"
       is_visible="true"
       pattern="m 295.18601,135.89451 c 0,-2.76 2.24,-15 5,-15 2.76,0 5,12.24 5,15 0,2.76 -2.24,15 -5,15 -2.76,0 -5,-12.24 -5,-15 z"
       copytype="single_stretched"
       prop_scale="1"
       scale_y_rel="false"
       spacing="0"
       normal_offset="0"
       tang_offset="0"
       prop_units="false"
       vertical_pattern="false"
       fuse_tolerance="0"
       pattern-nodetypes="sssss" />
    <inkscape:path-effect
       effect="spiro"
       id="path-effect3789"
       is_visible="true" />
    <inkscape:path-effect
       effect="skeletal"
       id="path-effect3005"
       is_visible="true"
       pattern="m 130.39326,27.22336 c 0,-2.76 14.02571,-5 16.78571,-5 2.76,0 5,2.24 5,5 0,2.76 -2.24,5 -5,5 -2.76,0 -16.78571,-2.24 -16.78571,-5 z"
       copytype="single_stretched"
       prop_scale="1"
       scale_y_rel="false"
       spacing="0"
       normal_offset="0"
       tang_offset="0"
       prop_units="false"
       vertical_pattern="false"
       fuse_tolerance="0"
       pattern-nodetypes="sssss" />
    <inkscape:path-effect
       effect="spiro"
       id="path-effect3003"
       is_visible="true" />
    <inkscape:path-effect
       effect="skeletal"
       id="path-effect2997"
       is_visible="true"
       pattern="M 0,5 C 0,2.24 2.24,0 5,0 7.76,0 10,2.24 10,5 10,7.76 7.76,10 5,10 2.24,10 0,7.76 0,5 z"
       copytype="single_stretched"
       prop_scale="1"
       scale_y_rel="false"
       spacing="0"
       normal_offset="0"
       tang_offset="0"
       prop_units="false"
       vertical_pattern="false"
       fuse_tolerance="0" />
    <inkscape:path-effect
       effect="spiro"
       id="path-effect2995"
       is_visible="true" />
    <inkscape:path-effect
       effect="spiro"
       id="path-effect2991"
       is_visible="true" />
    <linearGradient
       inkscape:collect="always"
       xlink:href="#linearGradient4656"
       id="linearGradient4662"
       x1="17.913401"
       y1="767.74677"
       x2="145.558"
       y2="897.74677"
       gradientUnits="userSpaceOnUse"
       gradientTransform="matrix(0.59974205,0,0,0.599697,45.511163,353.19044)" />
    <filter
       inkscape:collect="always"
       id="filter4713">
      <feGaussianBlur
         inkscape:collect="always"
         stdDeviation="3.613166"
         id="feGaussianBlur4715" />
    </filter>
    <filter
       inkscape:collect="always"
       id="filter4761">
      <feGaussianBlur
         inkscape:collect="always"
         stdDeviation="0.1466368"
         id="feGaussianBlur4763" />
    </filter>
    <linearGradient
       inkscape:collect="always"
       xlink:href="#linearGradient4656"
       id="linearGradient4795"
       gradientUnits="userSpaceOnUse"
       gradientTransform="matrix(0.59974205,0,0,0.599697,45.511163,353.19044)"
       x1="17.913401"
       y1="767.74677"
       x2="145.558"
       y2="897.74677" />
    <linearGradient
       id="linearGradient4656-6">
      <stop
         style="stop-color:#1fa1c4;stop-opacity:1;"
         offset="0"
         id="stop4658-5" />
      <stop
         style="stop-color:#bee9f5;stop-opacity:1;"
         offset="1"
         id="stop4660-9" />
    </linearGradient>
    <linearGradient
       y2="897.74677"
       x2="145.558"
       y1="767.74677"
       x1="17.913401"
       gradientTransform="matrix(0.59974205,0,0,0.599697,45.511163,353.19044)"
       gradientUnits="userSpaceOnUse"
       id="linearGradient4822"
       xlink:href="#linearGradient4656-6"
       inkscape:collect="always" />
    <linearGradient
       inkscape:collect="always"
       xlink:href="#linearGradient4656-6"
       id="linearGradient4870"
       x1="126.29976"
       y1="648.55029"
       x2="191.75453"
       y2="715.2204"
       gradientUnits="userSpaceOnUse" />
    <filter
       inkscape:collect="always"
       id="filter4886">
      <feGaussianBlur
         inkscape:collect="always"
         stdDeviation="2.6537836"
         id="feGaussianBlur4888" />
    </filter>
    <filter
       inkscape:collect="always"
       id="filter4890"
       x="-0.029336445"
       width="1.0586729"
       y="-0.24199321"
       height="1.4839864">
      <feGaussianBlur
         inkscape:collect="always"
         stdDeviation="3.7665369"
         id="feGaussianBlur4892" />
    </filter>
    <filter
       inkscape:collect="always"
       id="filter4894">
      <feGaussianBlur
         inkscape:collect="always"
         stdDeviation="4.1284433"
         id="feGaussianBlur4896" />
    </filter>
    <clipPath
       clipPathUnits="userSpaceOnUse"
       id="clipPath4900">
      <rect
         style="color:#000000;fill:#bcbcbc;fill-opacity:1;fill-rule:evenodd;stroke:none;stroke-width:1;marker:none;visibility:visible;display:inline;overflow:visible;enable-background:accumulate"
         id="rect4902"
         width="300"
         height="525.46649"
         x="-553.06976"
         y="546.62677"
         inkscape:export-filename="/home/daniel/files/work/sts-workspace/rimrock/misc/processes.png"
         inkscape:export-xdpi="108"
         inkscape:export-ydpi="108"
         transform="matrix(1,0,0.54212542,0.84029758,0,0)" />
    </clipPath>
    <filter
       inkscape:collect="always"
       id="filter4904">
      <feGaussianBlur
         inkscape:collect="always"
         stdDeviation="0.10960079"
         id="feGaussianBlur4906" />
    </filter>
    <linearGradient
       inkscape:collect="always"
       xlink:href="#linearGradient4656"
       id="linearGradient4931"
       gradientUnits="userSpaceOnUse"
       gradientTransform="matrix(0.59974205,0,0,0.599697,45.511163,353.19044)"
       x1="17.913401"
       y1="767.74677"
       x2="145.558"
       y2="897.74677" />
    <linearGradient
       inkscape:collect="always"
       xlink:href="#linearGradient4656"
       id="linearGradient4933"
       gradientUnits="userSpaceOnUse"
       gradientTransform="matrix(0.59974205,0,0,0.599697,45.511163,353.19044)"
       x1="17.913401"
       y1="767.74677"
       x2="145.558"
       y2="897.74677" />
    <linearGradient
       inkscape:collect="always"
       xlink:href="#linearGradient4656"
       id="linearGradient4935"
       gradientUnits="userSpaceOnUse"
       gradientTransform="matrix(0.59974205,0,0,0.599697,45.511163,353.19044)"
       x1="17.913401"
       y1="767.74677"
       x2="145.558"
       y2="897.74677" />
    <filter
       inkscape:collect="always"
       id="filter4946">
      <feGaussianBlur
         inkscape:collect="always"
         stdDeviation="4.7710445"
         id="feGaussianBlur4948" />
    </filter>
    <filter
       inkscape:collect="always"
       id="filter4950">
      <feGaussianBlur
         inkscape:collect="always"
         stdDeviation="4.7710445"
         id="feGaussianBlur4952" />
    </filter>
    <filter
       inkscape:collect="always"
       id="filter4954">
      <feGaussianBlur
         inkscape:collect="always"
         stdDeviation="4.7710445"
         id="feGaussianBlur4956" />
    </filter>
    <linearGradient
       inkscape:collect="always"
       xlink:href="#linearGradient4656"
       id="linearGradient4980"
       gradientUnits="userSpaceOnUse"
       gradientTransform="matrix(0.59974205,0,0,0.599697,45.511163,353.19044)"
       x1="17.913401"
       y1="767.74677"
       x2="145.558"
       y2="897.74677" />
    <linearGradient
       inkscape:collect="always"
       xlink:href="#linearGradient4656"
       id="linearGradient4982"
       gradientUnits="userSpaceOnUse"
       gradientTransform="matrix(0.59974205,0,0,0.599697,45.511163,353.19044)"
       x1="17.913401"
       y1="767.74677"
       x2="145.558"
       y2="897.74677" />
    <linearGradient
       inkscape:collect="always"
       xlink:href="#linearGradient4656"
       id="linearGradient4984"
       gradientUnits="userSpaceOnUse"
       gradientTransform="matrix(0.59974205,0,0,0.599697,45.511163,353.19044)"
       x1="17.913401"
       y1="767.74677"
       x2="145.558"
       y2="897.74677" />
    <filter
       inkscape:collect="always"
       id="filter4994">
      <feGaussianBlur
         inkscape:collect="always"
         stdDeviation="1.5817801"
         id="feGaussianBlur4996" />
    </filter>
    <linearGradient
       inkscape:collect="always"
       xlink:href="#linearGradient4656"
       id="linearGradient5012"
       gradientUnits="userSpaceOnUse"
       gradientTransform="matrix(0.59974205,0,0,0.599697,45.511163,353.19044)"
       x1="17.913401"
       y1="767.74677"
       x2="145.558"
       y2="897.74677" />
    <linearGradient
       inkscape:collect="always"
       xlink:href="#linearGradient4656"
       id="linearGradient5014"
       gradientUnits="userSpaceOnUse"
       gradientTransform="matrix(0.59974205,0,0,0.599697,45.511163,353.19044)"
       x1="17.913401"
       y1="767.74677"
       x2="145.558"
       y2="897.74677" />
    <linearGradient
       inkscape:collect="always"
       xlink:href="#linearGradient4656"
       id="linearGradient5016"
       gradientUnits="userSpaceOnUse"
       gradientTransform="matrix(0.59974205,0,0,0.599697,45.511163,353.19044)"
       x1="17.913401"
       y1="767.74677"
       x2="145.558"
       y2="897.74677" />
    <filter
       inkscape:collect="always"
       id="filter5026">
      <feGaussianBlur
         inkscape:collect="always"
         stdDeviation="3.9544502"
         id="feGaussianBlur5028" />
    </filter>
    <linearGradient
       inkscape:collect="always"
       xlink:href="#linearGradient4656"
       id="linearGradient5044"
       gradientUnits="userSpaceOnUse"
       gradientTransform="matrix(0.59974205,0,0,0.599697,45.511163,353.19044)"
       x1="17.913401"
       y1="767.74677"
       x2="145.558"
       y2="897.74677" />
    <linearGradient
       inkscape:collect="always"
       xlink:href="#linearGradient4656"
       id="linearGradient5046"
       gradientUnits="userSpaceOnUse"
       gradientTransform="matrix(0.59974205,0,0,0.599697,45.511163,353.19044)"
       x1="17.913401"
       y1="767.74677"
       x2="145.558"
       y2="897.74677" />
    <linearGradient
       inkscape:collect="always"
       xlink:href="#linearGradient4656"
       id="linearGradient5048"
       gradientUnits="userSpaceOnUse"
       gradientTransform="matrix(0.59974205,0,0,0.599697,45.511163,353.19044)"
       x1="17.913401"
       y1="767.74677"
       x2="145.558"
       y2="897.74677" />
    <filter
       inkscape:collect="always"
       id="filter5058"
       x="-0.10541271"
       width="1.2108254"
       y="-0.069817765"
       height="1.1396355">
      <feGaussianBlur
         inkscape:collect="always"
         stdDeviation="5.5362303"
         id="feGaussianBlur5060" />
    </filter>
  </defs>
  <sodipodi:namedview
     id="base"
     pagecolor="#ffffff"
     bordercolor="#666666"
     borderopacity="1.0"
     inkscape:pageopacity="0.0"
     inkscape:pageshadow="2"
     inkscape:zoom="0.98994949"
     inkscape:cx="152.975"
     inkscape:cy="204.6417"
     inkscape:document-units="px"
     inkscape:current-layer="svg2"
     showgrid="false"
     inkscape:window-width="1280"
     inkscape:window-height="974"
     inkscape:window-x="0"
     inkscape:window-y="0"
     inkscape:window-maximized="1"
     showguides="true"
     inkscape:guide-bbox="true">
    <sodipodi:guide
       position="318.92853,920.71429"
       orientation="142.5,0"
       id="guide3802" />
    <sodipodi:guide
       position="318.92853,778.21429"
       orientation="0,142.50003"
       id="guide3804" />
    <sodipodi:guide
       position="461.42856,778.21429"
       orientation="-142.5,0"
       id="guide3806" />
    <sodipodi:guide
       position="461.42856,920.71429"
       orientation="0,-142.50003"
       id="guide3808" />
  </sodipodi:namedview>
  <metadata
     id="metadata7">
    <rdf:RDF>
      <cc:Work
         rdf:about="">
        <dc:format>image/svg+xml</dc:format>
        <dc:type
           rdf:resource="http://purl.org/dc/dcmitype/StillImage" />
        <dc:title></dc:title>
      </cc:Work>
    </rdf:RDF>
  </metadata>
  <rect
     inkscape:export-ydpi="108"
     inkscape:export-xdpi="108"
     inkscape:export-filename="/home/daniel/files/work/sts-workspace/rimrock/misc/processes.png"
     y="952.18097"
     x="-27.75201"
     height="225"
     width="300"
     id="rect4908"
     style="color:#000000;fill:#bcbcbc;fill-opacity:1;fill-rule:evenodd;stroke:none;stroke-width:1;marker:none;visibility:visible;display:inline;overflow:visible;enable-background:accumulate" />
  <rect
     inkscape:export-ydpi="108"
     inkscape:export-xdpi="108"
     inkscape:export-filename="/home/daniel/files/work/sts-workspace/rimrock/misc/iprocesses.png"
     y="637.94873"
     x="-27.75201"
     height="225"
     width="300"
     id="rect4787"
     style="color:#000000;fill:#bcbcbc;fill-opacity:1;fill-rule:evenodd;stroke:none;stroke-width:1;marker:none;visibility:visible;display:inline;overflow:visible;enable-background:accumulate" />
  <rect
     style="color:#000000;fill:#bcbcbc;fill-opacity:1;fill-rule:evenodd;stroke:none;stroke-width:1;marker:none;visibility:visible;display:inline;overflow:visible;enable-background:accumulate"
     id="rect4552"
     width="300"
     height="225"
     x="-27.75201"
     y="303.66302"
     inkscape:export-filename="/home/daniel/files/work/sts-workspace/rimrock/misc/processes.png"
     inkscape:export-xdpi="108"
     inkscape:export-ydpi="108" />
  <g
     inkscape:label="Layer 1"
     inkscape:groupmode="layer"
     id="layer1">
    <path
       transform="matrix(0.86089754,0,0,0.86089754,44.061775,24.141324)"
       inkscape:connector-curvature="0"
       d="m 58.479805,808.54362 33.388241,0 c 2.079994,0 3.754502,1.6745 3.754502,3.7545 l 0,67.32306 c 0,2.07999 -1.674508,3.7545 -3.754502,3.7545 l -33.388241,0 c -2.079994,0 -3.754501,-1.67451 -3.754501,-3.7545 l 0,-67.32306 c 0,-2.08 1.674507,-3.7545 3.754501,-3.7545 z m 64.986155,-79.41408 c -9.8623,0.2453 -20.10272,1.85985 -29.625373,4.45847 -7.602059,1.80079 -14.835821,3.92049 -21.588386,5.86641 -6.752566,1.9459 -13.008336,3.70244 -18.889838,4.69312 -7.860425,1.49338 -16.01601,1.85982 -23.758957,1.52527 -7.742966,-0.33456 -15.066855,-1.36041 -21.4710583,-2.52256 -6.4042229,-1.16214 -11.9281657,-2.39927 -16.2499527,-2.87454 -4.321789,-0.47528 -7.482591,-0.20608 -9.034271,1.70126 -1.520817,1.86943 -1.248822,5.14572 0.99729,9.38626 2.246112,4.24054 6.4961144,9.45995 12.730107,14.66602 6.2339942,5.20607 14.485038,10.37673 24.404263,14.43137 9.919225,4.05462 21.502352,6.94198 33.849181,7.86099 8.925878,0.56392 17.574411,0.28979 25.636209,-0.23466 8.061816,-0.52443 15.487771,-1.29737 22.057696,-1.75992 7.84321,-0.22843 14.65006,-0.33218 20.00447,0.11732 5.3544,0.44951 9.31518,1.50881 12.0848,2.93321 2.24679,0.82991 4.0956,1.86004 5.51442,2.75721 1.41883,0.89718 2.38419,1.6278 2.93321,1.99458 0.63319,0.42304 2.80395,1.49576 5.92507,3.9305 1.56056,1.21737 3.37789,2.82837 5.2211,4.81045 1.84324,1.98208 3.68758,4.34244 5.33844,7.15702 2.54302,4.18944 4.60844,9.80212 5.45576,16.42595 0.84729,6.62382 0.48735,14.26264 -1.58393,21.8817 -1.71468,6.43407 -4.91012,13.0223 -9.38626,19.24182 -4.47611,6.21952 -10.22679,12.09442 -16.89526,16.95393 -6.46782,4.72414 -13.95101,8.51755 -21.99904,11.2635 -8.04802,2.74593 -16.666176,4.44792 -25.284222,5.10378 -7.448612,0.55551 -15.483228,0.22311 -23.758957,0.0586 -8.275748,-0.16445 -16.759345,-0.17346 -25.166895,0.76263 -9.587346,1.1302 -18.497549,3.57284 -26.398843,6.80504 -7.9012922,3.23219 -14.78389497,7.26597 -20.649759,11.55682 -6.132116,4.48885 -11.130484,9.22288 -15.076672,13.7274 -3.946207,4.50454 -6.876502,8.77728 -9.03427,12.37812 -2.157769,3.60085 -3.530152,6.55518 -4.341143,8.62363 -0.811686,2.06844 -1.07865,3.25083 -0.821297,3.40251 0.255174,0.15037 1.145367,-0.66026 2.639884,-2.22923 1.494498,-1.56897 3.600548,-3.91788 6.45305,-6.68771 2.852502,-2.76985 6.444096,-5.96648 10.852857,-9.21026 4.408761,-3.24376 9.64464,-6.52538 15.66331203,-9.32759 C 5.958003,928.07953 12.44443,925.8221 19.454517,924.36357 c 7.010088,-1.45855 14.567919,-2.09101 22.233692,-1.64259 6.74378,0.32977 13.927456,1.59872 21.764378,3.10919 7.836941,1.51048 16.322397,3.21346 25.753536,4.10649 10.968707,1.04584 22.412877,0.73656 33.790527,-1.23195 11.37764,-1.9685 22.70174,-5.56201 33.43853,-10.85285 11.11304,-5.49757 21.30588,-12.89514 29.97735,-21.70572 8.67149,-8.81055 15.80107,-19.03198 21.06041,-30.09468 6.20644,-13.1921 9.26254,-27.1871 9.62091,-40.53688 0.35835,-13.34981 -1.99495,-26.05833 -5.98374,-37.2517 -3.13634,-8.57626 -7.23235,-15.91554 -11.55682,-22.0577 -4.32447,-6.14216 -8.84221,-11.08397 -13.02343,-14.95934 -4.18122,-3.8754 -8.00165,-6.72644 -10.97019,-8.74095 -2.96855,-2.01454 -5.10751,-3.22621 -6.10106,-3.75451 -1.30561,-0.69422 -3.55001,-1.82029 -6.68771,-3.10919 -3.13769,-1.28892 -7.16105,-2.71584 -12.0848,-3.98916 -7.8939,-1.65729 -17.35785,-2.76788 -27.22014,-2.52256 z m -48.280555,15.72197 c 10.734853,0 19.417815,8.68297 19.417815,19.41782 0,10.73485 -8.682962,19.47648 -19.417815,19.47648 -10.734853,0 -19.476478,-8.74163 -19.476478,-19.47648 0,-10.73485 8.741625,-19.41782 19.476478,-19.41782 z"
       style="color:#000000;fill:#a4a4a4;fill-opacity:1;fill-rule:evenodd;stroke:none;stroke-width:1;marker:none;visibility:visible;display:inline;overflow:visible;filter:url(#filter4713);enable-background:accumulate"
       id="path4789" />
    <g
       id="g3007"
       inkscape:export-filename="/home/daniel/files/work/sts-workspace/rimrock/misc/logo-280x126.png"
       inkscape:export-xdpi="145.92"
       inkscape:export-ydpi="145.92">
      <path
         d="m 124.61678,79.328491 c -0.36001,-0.119985 -0.86401,-0.239985 -1.512,-0.36 -0.62401,-0.143985 -1.35601,-0.215985 -2.196,-0.216 -0.48001,1.5e-5 -0.99601,0.04801 -1.548,0.144 -0.528,0.09602 -0.9,0.180015 -1.116,0.252 l 0,15.084 -4.356,0 0,-17.928 c 0.84,-0.311982 1.884,-0.599982 3.132,-0.864 1.272,-0.287981 2.67599,-0.431981 4.212,-0.432 0.28799,1.9e-5 0.62399,0.02402 1.008,0.072 0.38399,0.02402 0.76799,0.07202 1.152,0.144 0.38399,0.04802 0.75599,0.120018 1.116,0.216 0.35999,0.07202 0.64799,0.144018 0.864,0.216 l -0.756,3.672"
         style="font-size:36px;font-style:normal;font-variant:normal;font-weight:500;font-stretch:normal;line-height:125%;letter-spacing:0px;word-spacing:0px;fill:#000000;fill-opacity:1;stroke:none;font-family:Ubuntu;-inkscape-font-specification:Ubuntu Medium"
         id="path3027"
         inkscape:connector-curvature="0" />
      <path
         id="path3050"
         d="m 132.76516,94.232491 -4.356,0 0,-18.828 4.356,0 0,18.828"
         style="font-size:36px;font-style:normal;font-variant:normal;font-weight:500;font-stretch:normal;line-height:125%;letter-spacing:0px;word-spacing:0px;fill:#19809d;fill-opacity:1;stroke:none;font-family:Ubuntu;-inkscape-font-specification:Ubuntu Medium;color:#000000;fill-rule:evenodd;marker:none;visibility:visible;display:inline;overflow:visible;enable-background:accumulate;" />
      <path
         d="m 149.01522,84.332491 c -1e-5,-1.967989 -0.25201,-3.383987 -0.756,-4.248 -0.48001,-0.887985 -1.39201,-1.331985 -2.736,-1.332 -0.48001,1.5e-5 -1.00801,0.03601 -1.584,0.108 -0.57601,0.07202 -1.00801,0.132015 -1.296,0.18 l 0,15.192 -4.356,0 0,-18.216 c 0.84,-0.239982 1.932,-0.467982 3.276,-0.684 1.36799,-0.215981 2.80799,-0.323981 4.32,-0.324 1.29599,1.9e-5 2.35199,0.168019 3.168,0.504 0.83999,0.336018 1.53599,0.780017 2.088,1.332 0.26398,-0.191983 0.59998,-0.395983 1.008,-0.612 0.40798,-0.215982 0.86398,-0.407982 1.368,-0.576 0.50398,-0.191982 1.03198,-0.347982 1.584,-0.468 0.57598,-0.119981 1.15198,-0.179981 1.728,-0.18 1.46398,1.9e-5 2.66398,0.216019 3.6,0.648 0.95997,0.408018 1.70397,0.996017 2.232,1.764 0.55197,0.744016 0.92397,1.656015 1.116,2.736 0.21597,1.056013 0.32397,2.220011 0.324,3.492 l 0,10.584 -4.356,0 0,-9.9 c -2e-5,-1.967989 -0.24002,-3.383987 -0.72,-4.248 -0.48002,-0.887985 -1.40402,-1.331985 -2.772,-1.332 -0.69602,1.5e-5 -1.35602,0.120015 -1.98,0.36 -0.62402,0.216014 -1.09202,0.432014 -1.404,0.648 0.19198,0.600013 0.32398,1.236013 0.396,1.908 0.072,0.672011 0.10798,1.392011 0.108,2.16 l 0,10.404 -4.356,0 0,-9.9"
         style="font-size:36px;font-style:normal;font-variant:normal;font-weight:500;font-stretch:normal;line-height:125%;letter-spacing:0px;word-spacing:0px;fill:#000000;fill-opacity:1;stroke:none;font-family:Ubuntu;-inkscape-font-specification:Ubuntu Medium"
         id="path3031"
         inkscape:connector-curvature="0" />
      <path
         d="m 180.16366,79.328491 c -0.36001,-0.119985 -0.86401,-0.239985 -1.512,-0.36 -0.62401,-0.143985 -1.35601,-0.215985 -2.196,-0.216 -0.48001,1.5e-5 -0.99601,0.04801 -1.548,0.144 -0.52801,0.09602 -0.90001,0.180015 -1.116,0.252 l 0,15.084 -4.356,0 0,-17.928 c 0.83999,-0.311982 1.88399,-0.599982 3.132,-0.864 1.27199,-0.287981 2.67599,-0.431981 4.212,-0.432 0.28799,1.9e-5 0.62399,0.02402 1.008,0.072 0.38399,0.02402 0.76799,0.07202 1.152,0.144 0.38399,0.04802 0.75599,0.120018 1.116,0.216 0.35998,0.07202 0.64798,0.144018 0.864,0.216 l -0.756,3.672"
         style="font-size:36px;font-style:normal;font-variant:normal;font-weight:500;font-stretch:normal;line-height:125%;letter-spacing:0px;word-spacing:0px;fill:#000000;fill-opacity:1;stroke:none;font-family:Ubuntu;-inkscape-font-specification:Ubuntu Medium"
         id="path3033"
         inkscape:connector-curvature="0" />
      <path
         d="m 200.94803,84.800491 c -2e-5,1.488007 -0.21602,2.844006 -0.648,4.068 -0.43202,1.224004 -1.04401,2.268003 -1.836,3.132 -0.79201,0.864001 -1.75201,1.536 -2.88,2.016 -1.10401,0.479999 -2.32801,0.719999 -3.672,0.72 -1.34401,-10e-7 -2.56801,-0.240001 -3.672,-0.72 -1.104,-0.48 -2.052,-1.151999 -2.844,-2.016 -0.792,-0.863997 -1.416,-1.907996 -1.872,-3.132 -0.432,-1.223994 -0.648,-2.579993 -0.648,-4.068 0,-1.48799 0.216,-2.831988 0.648,-4.032 0.456,-1.223986 1.08,-2.267985 1.872,-3.132 0.816,-0.863983 1.776,-1.523982 2.88,-1.98 1.10399,-0.479981 2.31599,-0.719981 3.636,-0.72 1.31999,1.9e-5 2.53199,0.240019 3.636,0.72 1.12799,0.456018 2.08799,1.116017 2.88,1.98 0.79199,0.864015 1.40398,1.908014 1.836,3.132 0.45598,1.200012 0.68398,2.54401 0.684,4.032 m -4.464,0 c -1e-5,-1.871989 -0.40801,-3.347988 -1.224,-4.428 -0.79201,-1.103985 -1.90801,-1.655985 -3.348,-1.656 -1.44001,1.5e-5 -2.56801,0.552015 -3.384,1.656 -0.792,1.080012 -1.188,2.556011 -1.188,4.428 0,1.896007 0.396,3.396006 1.188,4.5 0.81599,1.104003 1.94399,1.656003 3.384,1.656 1.43999,3e-6 2.55599,-0.551997 3.348,-1.656 0.81599,-1.103994 1.22399,-2.603993 1.224,-4.5"
         style="font-size:36px;font-style:normal;font-variant:normal;font-weight:500;font-stretch:normal;line-height:125%;letter-spacing:0px;word-spacing:0px;fill:#000000;fill-opacity:1;stroke:none;font-family:Ubuntu;-inkscape-font-specification:Ubuntu Medium"
         id="path3035"
         inkscape:connector-curvature="0" />
      <path
         d="m 204.39166,84.836491 c 0,-1.39199 0.216,-2.687988 0.648,-3.888 0.432,-1.223986 1.04399,-2.279985 1.836,-3.168 0.81599,-0.887983 1.79999,-1.583982 2.952,-2.088 1.15199,-0.503981 2.44799,-0.755981 3.888,-0.756 1.77599,1.9e-5 3.45598,0.324019 5.04,0.972 l -0.936,3.564 c -0.50402,-0.215985 -1.08002,-0.395985 -1.728,-0.54 -0.62401,-0.143985 -1.29601,-0.215985 -2.016,-0.216 -1.70401,1.5e-5 -3.00001,0.540015 -3.888,1.62 -0.88801,1.056012 -1.33201,2.556011 -1.332,4.5 -1e-5,1.872007 0.41999,3.360006 1.26,4.464 0.83999,1.080003 2.25599,1.620003 4.248,1.62 0.74399,3e-6 1.47598,-0.072 2.196,-0.216 0.71998,-0.143997 1.34398,-0.323997 1.872,-0.54 l 0.612,3.6 c -0.48002,0.24 -1.21202,0.456 -2.196,0.648 -0.96002,0.191999 -1.95601,0.287999 -2.988,0.288 -1.60801,-10e-7 -3.01201,-0.240001 -4.212,-0.72 -1.17601,-0.504 -2.16001,-1.187999 -2.952,-2.052 -0.76801,-0.887997 -1.344,-1.931996 -1.728,-3.132 -0.384,-1.223994 -0.576,-2.543992 -0.576,-3.96"
         style="font-size:36px;font-style:normal;font-variant:normal;font-weight:500;font-stretch:normal;line-height:125%;letter-spacing:0px;word-spacing:0px;fill:#000000;fill-opacity:1;stroke:none;font-family:Ubuntu;-inkscape-font-specification:Ubuntu Medium"
         id="path3037"
         inkscape:connector-curvature="0" />
      <path
         d="m 226.80728,82.748491 c 0.552,-0.575988 1.13999,-1.187988 1.764,-1.836 0.62399,-0.671986 1.23599,-1.331986 1.836,-1.98 0.59999,-0.671984 1.16399,-1.307984 1.692,-1.908 0.55199,-0.623983 1.01999,-1.163982 1.404,-1.62 l 5.148,0 c -1.20001,1.344017 -2.47201,2.736016 -3.816,4.176 -1.32001,1.440013 -2.65201,2.844011 -3.996,4.212 0.71999,0.600009 1.47599,1.332009 2.268,2.196 0.79199,0.840007 1.55999,1.740006 2.304,2.7 0.74399,0.960004 1.43999,1.920003 2.088,2.88 0.64798,0.960001 1.18798,1.848 1.62,2.664 l -5.04,0 c -0.43201,-0.744 -0.93601,-1.523999 -1.512,-2.34 -0.55201,-0.815997 -1.15201,-1.607997 -1.8,-2.376 -0.64801,-0.767995 -1.30801,-1.487994 -1.98,-2.16 -0.67201,-0.695993 -1.332,-1.283992 -1.98,-1.764 l 0,8.64 -4.356,0 0,-27.216 4.356,-0.72 0,16.452"
         style="font-size:36px;font-style:normal;font-variant:normal;font-weight:500;font-stretch:normal;line-height:125%;letter-spacing:0px;word-spacing:0px;fill:#000000;fill-opacity:1;stroke:none;font-family:Ubuntu;-inkscape-font-specification:Ubuntu Medium"
         id="path3039"
         inkscape:connector-curvature="0" />
      <path
         inkscape:export-ydpi="156.34"
         inkscape:export-xdpi="156.34"
         inkscape:export-filename="/home/daniel/files/work/sts-workspace/rimrock/misc/logo.png"
         id="path3001"
         d="M 214.625 45.3125 C 208.84197 45.415392 203.62074 46.080391 199.0625 46.875 C 192.98485 47.934478 188.04533 49.223524 184.375 50.25 C 180.7599 51.26103 177.25776 52.356837 173.875 53.46875 C 165.4335 56.177162 157.57659 58.95824 150.34375 61.09375 C 143.11092 63.22926 136.50037 64.718178 130.59375 65.53125 C 122.73558 66.640462 116.18512 66.65815 111.59375 66.65625 C 109.29806 66.65529 107.47635 66.65261 106.21875 66.75 C 104.96114 66.847388 104.2658 67.020716 104.1875 67.375 C 104.10921 67.729284 104.65938 68.235422 105.8125 68.8125 C 106.96562 69.389579 108.71547 70.055404 111.03125 70.6875 C 113.34703 71.319596 116.23756 71.926683 119.625 72.34375 C 123.01244 72.760818 126.91181 72.970993 131.21875 72.84375 C 137.68351 72.632644 144.94347 71.595171 152.65625 69.8125 C 160.36904 68.02983 168.52361 65.522389 176.875 62.9375 C 180.22937 61.925799 183.63514 60.905051 187.09375 59.9375 C 190.6052 58.955168 195.26607 57.684628 200.84375 56.625 C 206.42143 55.565373 212.91984 54.698726 220.09375 55.0625 C 223.38622 55.221662 226.81446 55.604488 230.25 56.375 C 233.68554 57.145513 237.13502 58.291904 240.40625 59.96875 C 243.3068 61.458028 246.11252 63.357025 248.59375 65.65625 C 251.07499 67.955474 253.21111 70.660096 254.75 73.71875 C 256.18261 76.552144 257.13539 79.746137 257.4375 83 C 257.73962 86.253863 257.41584 89.57931 256.25 92.59375 C 255.14143 95.545276 253.30909 98.27126 250.9375 100.34375 C 248.59881 102.39329 245.671 103.86798 242.625 104.40625 C 238.37012 105.30326 233.38232 104.14894 228 103.21875 C 219.28753 101.59332 210.53277 100.5252 201.90625 100 C 193.27973 99.474789 184.8132 99.478762 176.65625 99.9375 C 160.34236 100.85497 145.36713 103.60061 132.90625 106.96875 C 120.44538 110.33689 110.46549 114.27335 103.6875 117.375 C 100.2985 118.92582 97.704468 120.27077 95.96875 121.25 C 94.233032 122.22923 93.35907 122.86369 93.4375 123.03125 C 93.515935 123.19881 94.532254 122.89717 96.40625 122.25 C 98.280247 121.60283 101.01639 120.58978 104.5 119.375 C 111.46723 116.94542 121.50058 113.69564 133.875 111 C 146.24942 108.30436 160.97621 106.22335 176.875 105.875 C 184.8244 105.70083 193.06414 105.92984 201.40625 106.6875 C 209.74836 107.44517 218.19989 108.70913 226.5625 110.5 C 231.72948 111.68046 237.55311 113.04068 243.90625 112.1875 C 248.4715 111.47 252.73682 109.45738 256.21875 106.53125 C 259.72876 103.57595 262.40635 99.789569 264.0625 95.625 C 265.7403 91.320191 266.34433 86.768205 266.0625 82.34375 C 265.78067 77.919294 264.62783 73.614668 262.71875 69.75 C 260.68828 65.654273 257.96985 62.076957 254.875 59.0625 C 251.78016 56.048043 248.30558 53.607111 244.6875 51.71875 C 240.64726 49.607142 236.50293 48.12358 232.4375 47.125 C 228.37207 46.126421 224.38025 45.611824 220.59375 45.40625 C 218.53992 45.298965 216.55268 45.278203 214.625 45.3125 z M 130.5625 66.34375 C 131.28249 66.343777 131.90949 66.582526 132.4375 67.0625 C 132.96549 67.542525 133.21874 68.191275 133.21875 69.03125 C 133.21874 69.847273 132.96549 70.488772 132.4375 70.96875 C 131.90949 71.448771 131.28249 71.718771 130.5625 71.71875 C 129.81849 71.718771 129.18424 71.448771 128.65625 70.96875 C 128.12825 70.488772 127.875 69.847273 127.875 69.03125 C 127.875 68.191275 128.12825 67.542525 128.65625 67.0625 C 129.18424 66.582526 129.81849 66.343777 130.5625 66.34375 z "
         style="fill:#19809d;fill-rule:evenodd;stroke:none;fill-opacity:1;" />
    </g>
    <g
       id="g4554">
      <path
         id="path3017"
         d="M 407.5625 149.875 C 402.30892 150.00567 396.85391 150.86573 391.78125 152.25 C 387.73168 153.20927 383.8783 154.33842 380.28125 155.375 C 376.6842 156.41157 373.35179 157.34727 370.21875 157.875 C 366.03155 158.67051 361.68712 158.86571 357.5625 158.6875 C 353.43787 158.50928 349.53648 157.96282 346.125 157.34375 C 342.71351 156.72468 339.77094 156.06567 337.46875 155.8125 C 335.16656 155.55932 333.48282 155.70272 332.65625 156.71875 C 331.84612 157.71458 331.99101 159.45984 333.1875 161.71875 C 334.38399 163.97766 336.64794 166.75801 339.96875 169.53125 C 343.28956 172.30449 347.68484 175.05887 352.96875 177.21875 C 358.25266 179.37862 364.42292 180.9167 371 181.40625 C 375.75476 181.70665 380.36178 181.56062 384.65625 181.28125 C 388.95073 181.00189 392.90649 180.59015 396.40625 180.34375 C 400.58428 180.22207 404.21024 180.1668 407.0625 180.40625 C 409.91476 180.6457 412.02464 181.20998 413.5 181.96875 C 414.69685 182.41084 415.6817 182.95958 416.4375 183.4375 C 417.1933 183.91542 417.70754 184.30462 418 184.5 C 418.3373 184.72535 419.49365 185.29678 421.15625 186.59375 C 421.98755 187.24224 422.95563 188.10041 423.9375 189.15625 C 424.91938 190.21209 425.90185 191.46944 426.78125 192.96875 C 428.1359 195.20044 429.23614 198.19028 429.6875 201.71875 C 430.13885 205.24722 429.94711 209.31637 428.84375 213.375 C 427.93035 216.80239 426.22816 220.3119 423.84375 223.625 C 421.45935 226.9381 418.396 230.06762 414.84375 232.65625 C 411.39838 235.17277 407.41213 237.1935 403.125 238.65625 C 398.83787 240.11899 394.24703 241.02563 389.65625 241.375 C 385.68842 241.67092 381.40843 241.49385 377 241.40625 C 372.59156 241.31861 368.0724 241.31383 363.59375 241.8125 C 358.48663 242.41455 353.74022 243.71573 349.53125 245.4375 C 345.32228 247.15927 341.65596 249.30804 338.53125 251.59375 C 335.26471 253.98493 332.60211 256.50672 330.5 258.90625 C 328.39788 261.30579 326.83693 263.58185 325.6875 265.5 C 324.53807 267.41815 323.80701 268.9919 323.375 270.09375 C 322.94262 271.1956 322.80041 271.82545 322.9375 271.90625 C 323.07343 271.98635 323.54763 271.55453 324.34375 270.71875 C 325.13986 269.88297 326.26174 268.63172 327.78125 267.15625 C 329.30076 265.68077 331.21398 263.97794 333.5625 262.25 C 335.91102 260.52207 338.70014 258.77397 341.90625 257.28125 C 344.96674 255.85447 348.42202 254.65195 352.15625 253.875 C 355.89048 253.09804 359.91649 252.76113 364 253 C 367.59237 253.17567 371.41907 253.85163 375.59375 254.65625 C 379.76844 255.46087 384.28859 256.36804 389.3125 256.84375 C 395.15546 257.40086 401.2517 257.23611 407.3125 256.1875 C 413.3733 255.13889 419.40558 253.22465 425.125 250.40625 C 431.04485 247.47773 436.47451 243.53709 441.09375 238.84375 C 445.713 234.15042 449.51088 228.70553 452.3125 222.8125 C 455.61863 215.78515 457.2466 208.3301 457.4375 201.21875 C 457.62839 194.10739 456.3748 187.33764 454.25 181.375 C 452.57929 176.80648 450.39737 172.89689 448.09375 169.625 C 445.79013 166.35311 443.38356 163.72064 441.15625 161.65625 C 438.92894 159.59185 436.89382 158.07312 435.3125 157 C 433.73117 155.92687 432.59176 155.28142 432.0625 155 C 431.36701 154.63019 430.17143 154.03034 428.5 153.34375 C 426.82857 152.65715 424.68535 151.89704 422.0625 151.21875 C 417.85747 150.33592 412.81608 149.74432 407.5625 149.875 z M 381.84375 158.25 C 387.56214 158.25 392.1875 162.87536 392.1875 168.59375 C 392.1875 174.31214 387.56214 178.96875 381.84375 178.96875 C 376.12536 178.96875 371.46875 174.31214 371.46875 168.59375 C 371.46875 162.87536 376.12536 158.25 381.84375 158.25 z "
         style="fill:#19809d;fill-rule:evenodd;stroke:none;color:#000000;fill-opacity:1;stroke-width:1;marker:none;visibility:visible;display:inline;overflow:visible;enable-background:accumulate" />
      <rect
         ry="2"
         rx="2"
         y="192.17836"
         x="370.94479"
         height="39.862579"
         width="21.785715"
         id="rect3796"
         style="color:#000000;fill:#19809d;fill-opacity:1;fill-rule:evenodd;stroke:none;stroke-width:1;marker:none;visibility:visible;display:inline;overflow:visible;enable-background:accumulate" />
    </g>
    <rect
       style="color:#000000;fill:#19809d;fill-opacity:0;fill-rule:evenodd;stroke:none;stroke-width:1;marker:none;visibility:visible;display:inline;overflow:visible;enable-background:accumulate"
       id="rect3833"
       width="142.50003"
       height="142.5"
       x="318.92853"
       y="131.64789"
       rx="2"
       ry="2"
       inkscape:export-filename="/home/daniel/files/work/sts-workspace/rimrock/misc/icon-64x64.png"
       inkscape:export-xdpi="40.419998"
       inkscape:export-ydpi="40.419998" />
    <rect
       style="color:#000000;fill:#19809d;fill-opacity:0;fill-rule:evenodd;stroke:none;stroke-width:1;marker:none;visibility:visible;display:inline;overflow:visible;enable-background:accumulate"
       id="rect3835"
       width="142.50003"
       height="142.5"
       x="318.92853"
       y="131.64789"
       rx="2"
       ry="2"
       inkscape:export-filename="/home/daniel/files/work/sts-workspace/rimrock/misc/icon-64x64.png"
       inkscape:export-xdpi="40.419998"
       inkscape:export-ydpi="40.419998" />
    <path
       id="rect4562"
       style="color:#000000;fill:#a4a4a4;fill-opacity:1;fill-rule:evenodd;stroke:none;stroke-width:1;marker:none;visibility:visible;display:inline;overflow:visible;filter:url(#filter4713);enable-background:accumulate"
       d="m 58.479805,808.54362 33.388241,0 c 2.079994,0 3.754502,1.6745 3.754502,3.7545 l 0,67.32306 c 0,2.07999 -1.674508,3.7545 -3.754502,3.7545 l -33.388241,0 c -2.079994,0 -3.754501,-1.67451 -3.754501,-3.7545 l 0,-67.32306 c 0,-2.08 1.674507,-3.7545 3.754501,-3.7545 z m 64.986155,-79.41408 c -9.8623,0.2453 -20.10272,1.85985 -29.625373,4.45847 -7.602059,1.80079 -14.835821,3.92049 -21.588386,5.86641 -6.752566,1.9459 -13.008336,3.70244 -18.889838,4.69312 -7.860425,1.49338 -16.01601,1.85982 -23.758957,1.52527 -7.742966,-0.33456 -15.066855,-1.36041 -21.4710583,-2.52256 -6.4042229,-1.16214 -11.9281657,-2.39927 -16.2499527,-2.87454 -4.321789,-0.47528 -7.482591,-0.20608 -9.034271,1.70126 -1.520817,1.86943 -1.248822,5.14572 0.99729,9.38626 2.246112,4.24054 6.4961144,9.45995 12.730107,14.66602 6.2339942,5.20607 14.485038,10.37673 24.404263,14.43137 9.919225,4.05462 21.502352,6.94198 33.849181,7.86099 8.925878,0.56392 17.574411,0.28979 25.636209,-0.23466 8.061816,-0.52443 15.487771,-1.29737 22.057696,-1.75992 7.84321,-0.22843 14.65006,-0.33218 20.00447,0.11732 5.3544,0.44951 9.31518,1.50881 12.0848,2.93321 2.24679,0.82991 4.0956,1.86004 5.51442,2.75721 1.41883,0.89718 2.38419,1.6278 2.93321,1.99458 0.63319,0.42304 2.80395,1.49576 5.92507,3.9305 1.56056,1.21737 3.37789,2.82837 5.2211,4.81045 1.84324,1.98208 3.68758,4.34244 5.33844,7.15702 2.54302,4.18944 4.60844,9.80212 5.45576,16.42595 0.84729,6.62382 0.48735,14.26264 -1.58393,21.8817 -1.71468,6.43407 -4.91012,13.0223 -9.38626,19.24182 -4.47611,6.21952 -10.22679,12.09442 -16.89526,16.95393 -6.46782,4.72414 -13.95101,8.51755 -21.99904,11.2635 -8.04802,2.74593 -16.666176,4.44792 -25.284222,5.10378 -7.448612,0.55551 -15.483228,0.22311 -23.758957,0.0586 -8.275748,-0.16445 -16.759345,-0.17346 -25.166895,0.76263 -9.587346,1.1302 -18.497549,3.57284 -26.398843,6.80504 -7.9012922,3.23219 -14.78389497,7.26597 -20.649759,11.55682 -6.132116,4.48885 -11.130484,9.22288 -15.076672,13.7274 -3.946207,4.50454 -6.876502,8.77728 -9.03427,12.37812 -2.157769,3.60085 -3.530152,6.55518 -4.341143,8.62363 -0.811686,2.06844 -1.07865,3.25083 -0.821297,3.40251 0.255174,0.15037 1.145367,-0.66026 2.639884,-2.22923 1.494498,-1.56897 3.600548,-3.91788 6.45305,-6.68771 2.852502,-2.76985 6.444096,-5.96648 10.852857,-9.21026 4.408761,-3.24376 9.64464,-6.52538 15.66331203,-9.32759 C 5.958003,928.07953 12.44443,925.8221 19.454517,924.36357 c 7.010088,-1.45855 14.567919,-2.09101 22.233692,-1.64259 6.74378,0.32977 13.927456,1.59872 21.764378,3.10919 7.836941,1.51048 16.322397,3.21346 25.753536,4.10649 10.968707,1.04584 22.412877,0.73656 33.790527,-1.23195 11.37764,-1.9685 22.70174,-5.56201 33.43853,-10.85285 11.11304,-5.49757 21.30588,-12.89514 29.97735,-21.70572 8.67149,-8.81055 15.80107,-19.03198 21.06041,-30.09468 6.20644,-13.1921 9.26254,-27.1871 9.62091,-40.53688 0.35835,-13.34981 -1.99495,-26.05833 -5.98374,-37.2517 -3.13634,-8.57626 -7.23235,-15.91554 -11.55682,-22.0577 -4.32447,-6.14216 -8.84221,-11.08397 -13.02343,-14.95934 -4.18122,-3.8754 -8.00165,-6.72644 -10.97019,-8.74095 -2.96855,-2.01454 -5.10751,-3.22621 -6.10106,-3.75451 -1.30561,-0.69422 -3.55001,-1.82029 -6.68771,-3.10919 -3.13769,-1.28892 -7.16105,-2.71584 -12.0848,-3.98916 -7.8939,-1.65729 -17.35785,-2.76788 -27.22014,-2.52256 z m -48.280555,15.72197 c 10.734853,0 19.417815,8.68297 19.417815,19.41782 0,10.73485 -8.682962,19.47648 -19.417815,19.47648 -10.734853,0 -19.476478,-8.74163 -19.476478,-19.47648 0,-10.73485 8.741625,-19.41782 19.476478,-19.41782 z"
       inkscape:connector-curvature="0"
       transform="matrix(0.86089754,0,0,0.86089754,44.061775,-310.14439)" />
    <path
       transform="matrix(0.86089754,0,0,0.86089754,44.061775,338.37354)"
       inkscape:connector-curvature="0"
       d="m 58.479805,808.54362 33.388241,0 c 2.079994,0 3.754502,1.6745 3.754502,3.7545 l 0,67.32306 c 0,2.07999 -1.674508,3.7545 -3.754502,3.7545 l -33.388241,0 c -2.079994,0 -3.754501,-1.67451 -3.754501,-3.7545 l 0,-67.32306 c 0,-2.08 1.674507,-3.7545 3.754501,-3.7545 z m 64.986155,-79.41408 c -9.8623,0.2453 -20.10272,1.85985 -29.625373,4.45847 -7.602059,1.80079 -14.835821,3.92049 -21.588386,5.86641 -6.752566,1.9459 -13.008336,3.70244 -18.889838,4.69312 -7.860425,1.49338 -16.01601,1.85982 -23.758957,1.52527 -7.742966,-0.33456 -15.066855,-1.36041 -21.4710583,-2.52256 -6.4042229,-1.16214 -11.9281657,-2.39927 -16.2499527,-2.87454 -4.321789,-0.47528 -7.482591,-0.20608 -9.034271,1.70126 -1.520817,1.86943 -1.248822,5.14572 0.99729,9.38626 2.246112,4.24054 6.4961144,9.45995 12.730107,14.66602 6.2339942,5.20607 14.485038,10.37673 24.404263,14.43137 9.919225,4.05462 21.502352,6.94198 33.849181,7.86099 8.925878,0.56392 17.574411,0.28979 25.636209,-0.23466 8.061816,-0.52443 15.487771,-1.29737 22.057696,-1.75992 7.84321,-0.22843 14.65006,-0.33218 20.00447,0.11732 5.3544,0.44951 9.31518,1.50881 12.0848,2.93321 2.24679,0.82991 4.0956,1.86004 5.51442,2.75721 1.41883,0.89718 2.38419,1.6278 2.93321,1.99458 0.63319,0.42304 2.80395,1.49576 5.92507,3.9305 1.56056,1.21737 3.37789,2.82837 5.2211,4.81045 1.84324,1.98208 3.68758,4.34244 5.33844,7.15702 2.54302,4.18944 4.60844,9.80212 5.45576,16.42595 0.84729,6.62382 0.48735,14.26264 -1.58393,21.8817 -1.71468,6.43407 -4.91012,13.0223 -9.38626,19.24182 -4.47611,6.21952 -10.22679,12.09442 -16.89526,16.95393 -6.46782,4.72414 -13.95101,8.51755 -21.99904,11.2635 -8.04802,2.74593 -16.666176,4.44792 -25.284222,5.10378 -7.448612,0.55551 -15.483228,0.22311 -23.758957,0.0586 -8.275748,-0.16445 -16.759345,-0.17346 -25.166895,0.76263 -9.587346,1.1302 -18.497549,3.57284 -26.398843,6.80504 -7.9012922,3.23219 -14.78389497,7.26597 -20.649759,11.55682 -6.132116,4.48885 -11.130484,9.22288 -15.076672,13.7274 -3.946207,4.50454 -6.876502,8.77728 -9.03427,12.37812 -2.157769,3.60085 -3.530152,6.55518 -4.341143,8.62363 -0.811686,2.06844 -1.07865,3.25083 -0.821297,3.40251 0.255174,0.15037 1.145367,-0.66026 2.639884,-2.22923 1.494498,-1.56897 3.600548,-3.91788 6.45305,-6.68771 2.852502,-2.76985 6.444096,-5.96648 10.852857,-9.21026 4.408761,-3.24376 9.64464,-6.52538 15.66331203,-9.32759 C 5.958003,928.07953 12.44443,925.8221 19.454517,924.36357 c 7.010088,-1.45855 14.567919,-2.09101 22.233692,-1.64259 6.74378,0.32977 13.927456,1.59872 21.764378,3.10919 7.836941,1.51048 16.322397,3.21346 25.753536,4.10649 10.968707,1.04584 22.412877,0.73656 33.790527,-1.23195 11.37764,-1.9685 22.70174,-5.56201 33.43853,-10.85285 11.11304,-5.49757 21.30588,-12.89514 29.97735,-21.70572 8.67149,-8.81055 15.80107,-19.03198 21.06041,-30.09468 6.20644,-13.1921 9.26254,-27.1871 9.62091,-40.53688 0.35835,-13.34981 -1.99495,-26.05833 -5.98374,-37.2517 -3.13634,-8.57626 -7.23235,-15.91554 -11.55682,-22.0577 -4.32447,-6.14216 -8.84221,-11.08397 -13.02343,-14.95934 -4.18122,-3.8754 -8.00165,-6.72644 -10.97019,-8.74095 -2.96855,-2.01454 -5.10751,-3.22621 -6.10106,-3.75451 -1.30561,-0.69422 -3.55001,-1.82029 -6.68771,-3.10919 -3.13769,-1.28892 -7.16105,-2.71584 -12.0848,-3.98916 -7.8939,-1.65729 -17.35785,-2.76788 -27.22014,-2.52256 z m -48.280555,15.72197 c 10.734853,0 19.417815,8.68297 19.417815,19.41782 0,10.73485 -8.682962,19.47648 -19.417815,19.47648 -10.734853,0 -19.476478,-8.74163 -19.476478,-19.47648 0,-10.73485 8.741625,-19.41782 19.476478,-19.41782 z"
       style="color:#000000;fill:#a4a4a4;fill-opacity:1;fill-rule:evenodd;stroke:none;stroke-width:1;marker:none;visibility:visible;display:inline;overflow:visible;filter:url(#filter4713);enable-background:accumulate"
       id="path4910" />
  </g>
  <path
     transform="matrix(0.91234644,0,-0.61899208,0.43014589,605.37938,91.532975)"
     sodipodi:nodetypes="csccsccsccsccsccsccsssss"
     inkscape:connector-curvature="0"
     id="path4765"
     d="m 99.444074,768.90221 c -4.213639,9.80585 -9.536608,18.84997 -19.64337,20.70775 -10.096885,1.85596 -18.292529,-4.68921 -25.712429,-12.3459 -8.810492,4.82125 -16.652053,11.41879 -22.886385,19.43379 6.38618,8.55216 11.552093,17.67399 8.107523,27.35553 -3.44349,9.6785 -13.208743,13.47791 -23.558144,16.07514 -0.253564,10.3092 1.68028,20.35195 5.44362,29.55601 10.59094,-1.25091 21.070605,-1.14624 27.72773,6.67096 6.659967,7.82051 5.102251,18.18417 2.177453,28.44419 9.753642,5.26161 18.42969,8.67468 28.260511,10.05275 4.213632,-9.80585 9.536601,-18.84998 19.643369,-20.70774 10.096878,-1.85597 18.292518,4.68921 25.712428,12.34588 8.81574,-4.82432 16.62716,-11.43524 22.86321,-19.45693 -6.37942,-8.54654 -11.52629,-17.65822 -8.08435,-27.33237 3.44243,-9.67555 13.18908,-13.47797 23.53497,-16.07514 0.25353,-10.30755 -1.6583,-20.35317 -5.42046,-29.55603 -10.59092,1.25092 -21.09376,1.14626 -27.75089,-6.67095 -6.66249,-7.82347 -5.08122,-18.18035 -2.15428,-28.44419 -9.74665,-5.25039 -18.44537,-8.67609 -28.260506,-10.05275 z m -10.053326,49.01296 c 13.233362,0 23.951932,10.74113 23.951932,23.97373 0,13.2326 -10.71857,23.95057 -23.951932,23.95057 -13.233363,0 -23.951941,-10.71797 -23.951941,-23.95057 0,-13.2326 10.718578,-23.97373 23.951941,-23.97373 z"
     style="color:#000000;fill:#000000;fill-opacity:0.62886598000000005;fill-rule:evenodd;stroke:none;stroke-width:4.78887462999999958;marker:none;visibility:visible;display:inline;overflow:visible;enable-background:accumulate;filter:url(#filter4886)" />
  <path
     style="color:#000000;fill:url(#linearGradient4662);fill-opacity:1;fill-rule:evenodd;stroke:#16748d;stroke-width:3.28825402;stroke-miterlimit:4;stroke-opacity:1;stroke-dasharray:none;marker:none;visibility:visible;display:inline;overflow:visible;filter:url(#filter4761);enable-background:accumulate"
     d="m 99.444074,768.90221 c -4.213639,9.80585 -9.536608,18.84997 -19.64337,20.70775 -10.096885,1.85596 -18.292529,-4.68921 -25.712429,-12.3459 -8.810492,4.82125 -16.652053,11.41879 -22.886385,19.43379 6.38618,8.55216 11.552093,17.67399 8.107523,27.35553 -3.44349,9.6785 -13.208743,13.47791 -23.558144,16.07514 -0.253564,10.3092 1.68028,20.35195 5.44362,29.55601 10.59094,-1.25091 21.070605,-1.14624 27.72773,6.67096 6.659967,7.82051 5.102251,18.18417 2.177453,28.44419 9.753642,5.26161 18.42969,8.67468 28.260511,10.05275 4.213632,-9.80585 9.536601,-18.84998 19.643369,-20.70774 10.096878,-1.85597 18.292518,4.68921 25.712428,12.34588 8.81574,-4.82432 16.62716,-11.43524 22.86321,-19.45693 -6.37942,-8.54654 -11.52629,-17.65822 -8.08435,-27.33237 3.44243,-9.67555 13.18908,-13.47797 23.53497,-16.07514 0.25353,-10.30755 -1.6583,-20.35317 -5.42046,-29.55603 -10.59092,1.25092 -21.09376,1.14626 -27.75089,-6.67095 -6.66249,-7.82347 -5.08122,-18.18035 -2.15428,-28.44419 -9.74665,-5.25039 -18.44537,-8.67609 -28.260506,-10.05275 z m -10.053326,49.01296 c 13.233362,0 23.951932,10.74113 23.951932,23.97373 0,13.2326 -10.71857,23.95057 -23.951932,23.95057 -13.233363,0 -23.951941,-10.71797 -23.951941,-23.95057 0,-13.2326 10.718578,-23.97373 23.951941,-23.97373 z"
     id="path4544"
     inkscape:connector-curvature="0"
     sodipodi:nodetypes="csccsccsccsccsccsccsssss"
     transform="matrix(0.91234644,0,0,0.91233014,40.692569,-351.90702)" />
  <path
     style="color:#000000;fill:url(#linearGradient4870);fill-opacity:1;fill-rule:evenodd;stroke:#16748d;stroke-width:3;stroke-linecap:butt;stroke-linejoin:miter;stroke-miterlimit:4;stroke-opacity:1;stroke-dashoffset:0;marker:none;visibility:visible;display:inline;overflow:visible;enable-background:accumulate;filter:url(#filter4904)"
     d="m 265.15895,661.1875 -181.84645,0.75 c 0.306628,12.56847 1.850285,19.52985 9.9375,26.4375 0.0068,0.007 0.02445,-0.007 0.03125,0 3.245961,3.34808 6.550425,6.28392 9.75,8.0625 3.23344,1.7974 6.1422,2.51518 9.625,1.875 3.48242,-0.64011 5.9674,-2.35551 8.34375,-5.1875 2.35818,-2.81033 4.40438,-6.73625 6.25,-11.03125 0.81761,-1.88979 2.74074,-2.96328 4.78125,-2.6875 15.35386,-2.08825 29.40036,-3.20576 45.09375,7.84375 4.28154,3.01458 12.27266,2.12712 16.90625,-2.28125 8.22755,-7.82765 57.40838,-11.73957 67.1277,-11.875 z M 184.09375,668 c 3.76577,0 6.8125,3.04673 6.8125,6.8125 0,3.76577 -3.04673,6.8125 -6.8125,6.8125 -3.76577,0 -6.8125,-3.04673 -6.8125,-6.8125 0,-3.76577 3.04673,-6.8125 6.8125,-6.8125 z"
     id="path4844"
     inkscape:connector-curvature="0"
     sodipodi:nodetypes="ccccsssccssccsssss" />
  <path
     style="color:#000000;fill:#000000;fill-opacity:0.66494847000000001;fill-rule:evenodd;stroke:none;stroke-width:3.28825402000000011;marker:none;visibility:visible;display:inline;overflow:visible;enable-background:accumulate;filter:url(#filter4894)"
     d="m 99.444074,768.90221 c -4.213639,9.80585 -9.536608,18.84997 -19.64337,20.70775 -10.096885,1.85596 -18.292529,-4.68921 -25.712429,-12.3459 -8.810492,4.82125 -16.652053,11.41879 -22.886385,19.43379 6.38618,8.55216 11.552093,17.67399 8.107523,27.35553 -3.44349,9.6785 -13.208743,13.47791 -23.558144,16.07514 -0.253564,10.3092 1.68028,20.35195 5.44362,29.55601 10.59094,-1.25091 21.070605,-1.14624 27.72773,6.67096 6.659967,7.82051 5.102251,18.18417 2.177453,28.44419 9.753642,5.26161 18.42969,8.67468 28.260511,10.05275 4.213632,-9.80585 9.536601,-18.84998 19.643369,-20.70774 10.096878,-1.85597 18.292518,4.68921 25.712428,12.34588 8.81574,-4.82432 16.62716,-11.43524 22.86321,-19.45693 -6.37942,-8.54654 -11.52629,-17.65822 -8.08435,-27.33237 3.44243,-9.67555 13.18908,-13.47797 23.53497,-16.07514 0.25353,-10.30755 -1.6583,-20.35317 -5.42046,-29.55603 -10.59092,1.25092 -21.09376,1.14626 -27.75089,-6.67095 -6.66249,-7.82347 -5.08122,-18.18035 -2.15428,-28.44419 -9.74665,-5.25039 -18.44537,-8.67609 -28.260506,-10.05275 z m -10.053326,49.01296 c 13.233362,0 23.951932,10.74113 23.951932,23.97373 0,13.2326 -10.71857,23.95057 -23.951932,23.95057 -13.233363,0 -23.951941,-10.71797 -23.951941,-23.95057 0,-13.2326 10.718578,-23.97373 23.951941,-23.97373 z"
     id="path4872"
     inkscape:connector-curvature="0"
     sodipodi:nodetypes="csccsccsccsccsccsccsssss"
     transform="matrix(0.91234644,0,-0.58859787,0.46489661,577.37888,394.9088)" />
  <path
     sodipodi:nodetypes="ccccsssccssccsssss"
     inkscape:connector-curvature="0"
     id="path4874"
     d="m 265.15895,661.1875 -181.84645,0.75 c 0.306628,12.56847 1.850285,19.52985 9.9375,26.4375 0.0068,0.007 0.02445,-0.007 0.03125,0 3.245961,3.34808 6.550425,6.28392 9.75,8.0625 3.23344,1.7974 6.1422,2.51518 9.625,1.875 3.48242,-0.64011 5.9674,-2.35551 8.34375,-5.1875 2.35818,-2.81033 4.40438,-6.73625 6.25,-11.03125 0.81761,-1.88979 2.74074,-2.96328 4.78125,-2.6875 15.35386,-2.08825 29.40036,-3.20576 45.09375,7.84375 4.28154,3.01458 12.27266,2.12712 16.90625,-2.28125 8.22755,-7.82765 57.40838,-11.73957 67.1277,-11.875 z M 184.09375,668 c 3.76577,0 6.8125,3.04673 6.8125,6.8125 0,3.76577 -3.04673,6.8125 -6.8125,6.8125 -3.76577,0 -6.8125,-3.04673 -6.8125,-6.8125 0,-3.76577 3.04673,-6.8125 6.8125,-6.8125 z"
     style="color:#000000;fill:#000000;fill-opacity:0.66494847000000001;fill-rule:evenodd;stroke:none;stroke-width:3;marker:none;visibility:visible;display:inline;overflow:visible;enable-background:accumulate;filter:url(#filter4890)"
     transform="matrix(1,0,-0.64515885,0.50957059,525.31776,403.8881)"
     clip-path="url(#clipPath4900)" />
  <path
     transform="matrix(0.91234644,0,0,0.91233014,40.692569,-17.621306)"
     sodipodi:nodetypes="csccsccsccsccsccsccsssss"
     inkscape:connector-curvature="0"
     id="path4793"
     d="m 99.444074,768.90221 c -4.213639,9.80585 -9.536608,18.84997 -19.64337,20.70775 -10.096885,1.85596 -18.292529,-4.68921 -25.712429,-12.3459 -8.810492,4.82125 -16.652053,11.41879 -22.886385,19.43379 6.38618,8.55216 11.552093,17.67399 8.107523,27.35553 -3.44349,9.6785 -13.208743,13.47791 -23.558144,16.07514 -0.253564,10.3092 1.68028,20.35195 5.44362,29.55601 10.59094,-1.25091 21.070605,-1.14624 27.72773,6.67096 6.659967,7.82051 5.102251,18.18417 2.177453,28.44419 9.753642,5.26161 18.42969,8.67468 28.260511,10.05275 4.213632,-9.80585 9.536601,-18.84998 19.643369,-20.70774 10.096878,-1.85597 18.292518,4.68921 25.712428,12.34588 8.81574,-4.82432 16.62716,-11.43524 22.86321,-19.45693 -6.37942,-8.54654 -11.52629,-17.65822 -8.08435,-27.33237 3.44243,-9.67555 13.18908,-13.47797 23.53497,-16.07514 0.25353,-10.30755 -1.6583,-20.35317 -5.42046,-29.55603 -10.59092,1.25092 -21.09376,1.14626 -27.75089,-6.67095 -6.66249,-7.82347 -5.08122,-18.18035 -2.15428,-28.44419 -9.74665,-5.25039 -18.44537,-8.67609 -28.260506,-10.05275 z m -10.053326,49.01296 c 13.233362,0 23.951932,10.74113 23.951932,23.97373 0,13.2326 -10.71857,23.95057 -23.951932,23.95057 -13.233363,0 -23.951941,-10.71797 -23.951941,-23.95057 0,-13.2326 10.718578,-23.97373 23.951941,-23.97373 z"
     style="color:#000000;fill:url(#linearGradient4795);fill-opacity:1;fill-rule:evenodd;stroke:#16748d;stroke-width:3.28825402;stroke-miterlimit:4;stroke-opacity:1;stroke-dasharray:none;marker:none;visibility:visible;display:inline;overflow:visible;filter:url(#filter4761);enable-background:accumulate" />
  <g
     id="g4958">
    <path
       transform="matrix(0.38895617,0,-0.15790825,0.19343105,238.80051,981.97309)"
       sodipodi:nodetypes="csccsccsccsccsccsccsssss"
       inkscape:connector-curvature="0"
       id="path4940"
       d="m 99.444074,768.90221 c -4.213639,9.80585 -9.536608,18.84997 -19.64337,20.70775 -10.096885,1.85596 -18.292529,-4.68921 -25.712429,-12.3459 -8.810492,4.82125 -16.652053,11.41879 -22.886385,19.43379 6.38618,8.55216 11.552093,17.67399 8.107523,27.35553 -3.44349,9.6785 -13.208743,13.47791 -23.558144,16.07514 -0.253564,10.3092 1.68028,20.35195 5.44362,29.55601 10.59094,-1.25091 21.070605,-1.14624 27.72773,6.67096 6.659967,7.82051 5.102251,18.18417 2.177453,28.44419 9.753642,5.26161 18.42969,8.67468 28.260511,10.05275 4.213632,-9.80585 9.536601,-18.84998 19.643369,-20.70774 10.096878,-1.85597 18.292518,4.68921 25.712428,12.34588 8.81574,-4.82432 16.62716,-11.43524 22.86321,-19.45693 -6.37942,-8.54654 -11.52629,-17.65822 -8.08435,-27.33237 3.44243,-9.67555 13.18908,-13.47797 23.53497,-16.07514 0.25353,-10.30755 -1.6583,-20.35317 -5.42046,-29.55603 -10.59092,1.25092 -21.09376,1.14626 -27.75089,-6.67095 -6.66249,-7.82347 -5.08122,-18.18035 -2.15428,-28.44419 -9.74665,-5.25039 -18.44537,-8.67609 -28.260506,-10.05275 z m -10.053326,49.01296 c 13.233362,0 23.951932,10.74113 23.951932,23.97373 0,13.2326 -10.71857,23.95057 -23.951932,23.95057 -13.233363,0 -23.951941,-10.71797 -23.951941,-23.95057 0,-13.2326 10.718578,-23.97373 23.951941,-23.97373 z"
       style="color:#000000;fill:#000000;fill-opacity:0.66494847;fill-rule:evenodd;stroke:none;stroke-width:7.71407843;marker:none;visibility:visible;display:inline;overflow:visible;filter:url(#filter4946);enable-background:accumulate" />
    <path
       style="color:#000000;fill:#000000;fill-opacity:0.66494847;fill-rule:evenodd;stroke:none;stroke-width:7.71407843;marker:none;visibility:visible;display:inline;overflow:visible;filter:url(#filter4950);enable-background:accumulate"
       d="m 99.444074,768.90221 c -4.213639,9.80585 -9.536608,18.84997 -19.64337,20.70775 -10.096885,1.85596 -18.292529,-4.68921 -25.712429,-12.3459 -8.810492,4.82125 -16.652053,11.41879 -22.886385,19.43379 6.38618,8.55216 11.552093,17.67399 8.107523,27.35553 -3.44349,9.6785 -13.208743,13.47791 -23.558144,16.07514 -0.253564,10.3092 1.68028,20.35195 5.44362,29.55601 10.59094,-1.25091 21.070605,-1.14624 27.72773,6.67096 6.659967,7.82051 5.102251,18.18417 2.177453,28.44419 9.753642,5.26161 18.42969,8.67468 28.260511,10.05275 4.213632,-9.80585 9.536601,-18.84998 19.643369,-20.70774 10.096878,-1.85597 18.292518,4.68921 25.712428,12.34588 8.81574,-4.82432 16.62716,-11.43524 22.86321,-19.45693 -6.37942,-8.54654 -11.52629,-17.65822 -8.08435,-27.33237 3.44243,-9.67555 13.18908,-13.47797 23.53497,-16.07514 0.25353,-10.30755 -1.6583,-20.35317 -5.42046,-29.55603 -10.59092,1.25092 -21.09376,1.14626 -27.75089,-6.67095 -6.66249,-7.82347 -5.08122,-18.18035 -2.15428,-28.44419 -9.74665,-5.25039 -18.44537,-8.67609 -28.260506,-10.05275 z m -10.053326,49.01296 c 13.233362,0 23.951932,10.74113 23.951932,23.97373 0,13.2326 -10.71857,23.95057 -23.951932,23.95057 -13.233363,0 -23.951941,-10.71797 -23.951941,-23.95057 0,-13.2326 10.718578,-23.97373 23.951941,-23.97373 z"
       id="path4942"
       inkscape:connector-curvature="0"
       sodipodi:nodetypes="csccsccsccsccsccsccsssss"
       transform="matrix(0.38895617,0,-0.15790825,0.19343105,265.87511,948.80783)" />
    <path
       transform="matrix(0.38895617,0,-0.15790825,0.19343105,292.94971,915.64257)"
       sodipodi:nodetypes="csccsccsccsccsccsccsssss"
       inkscape:connector-curvature="0"
       id="path4944"
       d="m 99.444074,768.90221 c -4.213639,9.80585 -9.536608,18.84997 -19.64337,20.70775 -10.096885,1.85596 -18.292529,-4.68921 -25.712429,-12.3459 -8.810492,4.82125 -16.652053,11.41879 -22.886385,19.43379 6.38618,8.55216 11.552093,17.67399 8.107523,27.35553 -3.44349,9.6785 -13.208743,13.47791 -23.558144,16.07514 -0.253564,10.3092 1.68028,20.35195 5.44362,29.55601 10.59094,-1.25091 21.070605,-1.14624 27.72773,6.67096 6.659967,7.82051 5.102251,18.18417 2.177453,28.44419 9.753642,5.26161 18.42969,8.67468 28.260511,10.05275 4.213632,-9.80585 9.536601,-18.84998 19.643369,-20.70774 10.096878,-1.85597 18.292518,4.68921 25.712428,12.34588 8.81574,-4.82432 16.62716,-11.43524 22.86321,-19.45693 -6.37942,-8.54654 -11.52629,-17.65822 -8.08435,-27.33237 3.44243,-9.67555 13.18908,-13.47797 23.53497,-16.07514 0.25353,-10.30755 -1.6583,-20.35317 -5.42046,-29.55603 -10.59092,1.25092 -21.09376,1.14626 -27.75089,-6.67095 -6.66249,-7.82347 -5.08122,-18.18035 -2.15428,-28.44419 -9.74665,-5.25039 -18.44537,-8.67609 -28.260506,-10.05275 z m -10.053326,49.01296 c 13.233362,0 23.951932,10.74113 23.951932,23.97373 0,13.2326 -10.71857,23.95057 -23.951932,23.95057 -13.233363,0 -23.951941,-10.71797 -23.951941,-23.95057 0,-13.2326 10.718578,-23.97373 23.951941,-23.97373 z"
       style="color:#000000;fill:#000000;fill-opacity:0.66494847;fill-rule:evenodd;stroke:none;stroke-width:7.71407843;marker:none;visibility:visible;display:inline;overflow:visible;filter:url(#filter4954);enable-background:accumulate" />
    <path
       style="color:#000000;fill:url(#linearGradient4931);fill-opacity:1;fill-rule:evenodd;stroke:#16748d;stroke-width:7.71407843;stroke-miterlimit:4;stroke-opacity:1;stroke-dasharray:none;marker:none;visibility:visible;display:inline;overflow:visible;filter:url(#filter4761);enable-background:accumulate"
       d="m 99.444074,768.90221 c -4.213639,9.80585 -9.536608,18.84997 -19.64337,20.70775 -10.096885,1.85596 -18.292529,-4.68921 -25.712429,-12.3459 -8.810492,4.82125 -16.652053,11.41879 -22.886385,19.43379 6.38618,8.55216 11.552093,17.67399 8.107523,27.35553 -3.44349,9.6785 -13.208743,13.47791 -23.558144,16.07514 -0.253564,10.3092 1.68028,20.35195 5.44362,29.55601 10.59094,-1.25091 21.070605,-1.14624 27.72773,6.67096 6.659967,7.82051 5.102251,18.18417 2.177453,28.44419 9.753642,5.26161 18.42969,8.67468 28.260511,10.05275 4.213632,-9.80585 9.536601,-18.84998 19.643369,-20.70774 10.096878,-1.85597 18.292518,4.68921 25.712428,12.34588 8.81574,-4.82432 16.62716,-11.43524 22.86321,-19.45693 -6.37942,-8.54654 -11.52629,-17.65822 -8.08435,-27.33237 3.44243,-9.67555 13.18908,-13.47797 23.53497,-16.07514 0.25353,-10.30755 -1.6583,-20.35317 -5.42046,-29.55603 -10.59092,1.25092 -21.09376,1.14626 -27.75089,-6.67095 -6.66249,-7.82347 -5.08122,-18.18035 -2.15428,-28.44419 -9.74665,-5.25039 -18.44537,-8.67609 -28.260506,-10.05275 z m -10.053326,49.01296 c 13.233362,0 23.951932,10.74113 23.951932,23.97373 0,13.2326 -10.71857,23.95057 -23.951932,23.95057 -13.233363,0 -23.951941,-10.71797 -23.951941,-23.95057 0,-13.2326 10.718578,-23.97373 23.951941,-23.97373 z"
       id="path4914"
       inkscape:connector-curvature="0"
       sodipodi:nodetypes="csccsccsccsccsccsccsssss"
       transform="matrix(0.38895617,0,0,0.38884252,93.539783,802.98318)" />
    <path
       transform="matrix(0.38895617,0,0,0.38884252,93.539783,736.31311)"
       sodipodi:nodetypes="csccsccsccsccsccsccsssss"
       inkscape:connector-curvature="0"
       id="path4918"
       d="m 99.444074,768.90221 c -4.213639,9.80585 -9.536608,18.84997 -19.64337,20.70775 -10.096885,1.85596 -18.292529,-4.68921 -25.712429,-12.3459 -8.810492,4.82125 -16.652053,11.41879 -22.886385,19.43379 6.38618,8.55216 11.552093,17.67399 8.107523,27.35553 -3.44349,9.6785 -13.208743,13.47791 -23.558144,16.07514 -0.253564,10.3092 1.68028,20.35195 5.44362,29.55601 10.59094,-1.25091 21.070605,-1.14624 27.72773,6.67096 6.659967,7.82051 5.102251,18.18417 2.177453,28.44419 9.753642,5.26161 18.42969,8.67468 28.260511,10.05275 4.213632,-9.80585 9.536601,-18.84998 19.643369,-20.70774 10.096878,-1.85597 18.292518,4.68921 25.712428,12.34588 8.81574,-4.82432 16.62716,-11.43524 22.86321,-19.45693 -6.37942,-8.54654 -11.52629,-17.65822 -8.08435,-27.33237 3.44243,-9.67555 13.18908,-13.47797 23.53497,-16.07514 0.25353,-10.30755 -1.6583,-20.35317 -5.42046,-29.55603 -10.59092,1.25092 -21.09376,1.14626 -27.75089,-6.67095 -6.66249,-7.82347 -5.08122,-18.18035 -2.15428,-28.44419 -9.74665,-5.25039 -18.44537,-8.67609 -28.260506,-10.05275 z m -10.053326,49.01296 c 13.233362,0 23.951932,10.74113 23.951932,23.97373 0,13.2326 -10.71857,23.95057 -23.951932,23.95057 -13.233363,0 -23.951941,-10.71797 -23.951941,-23.95057 0,-13.2326 10.718578,-23.97373 23.951941,-23.97373 z"
       style="color:#000000;fill:url(#linearGradient4933);fill-opacity:1;fill-rule:evenodd;stroke:#16748d;stroke-width:7.71407843;stroke-miterlimit:4;stroke-opacity:1;stroke-dasharray:none;marker:none;visibility:visible;display:inline;overflow:visible;filter:url(#filter4761);enable-background:accumulate" />
    <path
       style="color:#000000;fill:url(#linearGradient4935);fill-opacity:1;fill-rule:evenodd;stroke:#16748d;stroke-width:7.71407843;stroke-miterlimit:4;stroke-opacity:1;stroke-dasharray:none;marker:none;visibility:visible;display:inline;overflow:visible;filter:url(#filter4761);enable-background:accumulate"
       d="m 99.444074,768.90221 c -4.213639,9.80585 -9.536608,18.84997 -19.64337,20.70775 -10.096885,1.85596 -18.292529,-4.68921 -25.712429,-12.3459 -8.810492,4.82125 -16.652053,11.41879 -22.886385,19.43379 6.38618,8.55216 11.552093,17.67399 8.107523,27.35553 -3.44349,9.6785 -13.208743,13.47791 -23.558144,16.07514 -0.253564,10.3092 1.68028,20.35195 5.44362,29.55601 10.59094,-1.25091 21.070605,-1.14624 27.72773,6.67096 6.659967,7.82051 5.102251,18.18417 2.177453,28.44419 9.753642,5.26161 18.42969,8.67468 28.260511,10.05275 4.213632,-9.80585 9.536601,-18.84998 19.643369,-20.70774 10.096878,-1.85597 18.292518,4.68921 25.712428,12.34588 8.81574,-4.82432 16.62716,-11.43524 22.86321,-19.45693 -6.37942,-8.54654 -11.52629,-17.65822 -8.08435,-27.33237 3.44243,-9.67555 13.18908,-13.47797 23.53497,-16.07514 0.25353,-10.30755 -1.6583,-20.35317 -5.42046,-29.55603 -10.59092,1.25092 -21.09376,1.14626 -27.75089,-6.67095 -6.66249,-7.82347 -5.08122,-18.18035 -2.15428,-28.44419 -9.74665,-5.25039 -18.44537,-8.67609 -28.260506,-10.05275 z m -10.053326,49.01296 c 13.233362,0 23.951932,10.74113 23.951932,23.97373 0,13.2326 -10.71857,23.95057 -23.951932,23.95057 -13.233363,0 -23.951941,-10.71797 -23.951941,-23.95057 0,-13.2326 10.718578,-23.97373 23.951941,-23.97373 z"
       id="path4922"
       inkscape:connector-curvature="0"
       sodipodi:nodetypes="csccsccsccsccsccsccsssss"
       transform="matrix(0.38895617,0,0,0.38884252,93.539783,669.64303)" />
  </g>
  <g
     id="g4966"
     transform="matrix(0.54131788,0,0,0.54131788,-41.912707,520.54182)"
     style="filter:url(#filter4994)">
    <path
       style="color:#000000;fill:#000000;fill-opacity:0.66494847;fill-rule:evenodd;stroke:none;stroke-width:7.71407843;marker:none;visibility:visible;display:inline;overflow:visible;filter:url(#filter4946);enable-background:accumulate"
       d="m 99.444074,768.90221 c -4.213639,9.80585 -9.536608,18.84997 -19.64337,20.70775 -10.096885,1.85596 -18.292529,-4.68921 -25.712429,-12.3459 -8.810492,4.82125 -16.652053,11.41879 -22.886385,19.43379 6.38618,8.55216 11.552093,17.67399 8.107523,27.35553 -3.44349,9.6785 -13.208743,13.47791 -23.558144,16.07514 -0.253564,10.3092 1.68028,20.35195 5.44362,29.55601 10.59094,-1.25091 21.070605,-1.14624 27.72773,6.67096 6.659967,7.82051 5.102251,18.18417 2.177453,28.44419 9.753642,5.26161 18.42969,8.67468 28.260511,10.05275 4.213632,-9.80585 9.536601,-18.84998 19.643369,-20.70774 10.096878,-1.85597 18.292518,4.68921 25.712428,12.34588 8.81574,-4.82432 16.62716,-11.43524 22.86321,-19.45693 -6.37942,-8.54654 -11.52629,-17.65822 -8.08435,-27.33237 3.44243,-9.67555 13.18908,-13.47797 23.53497,-16.07514 0.25353,-10.30755 -1.6583,-20.35317 -5.42046,-29.55603 -10.59092,1.25092 -21.09376,1.14626 -27.75089,-6.67095 -6.66249,-7.82347 -5.08122,-18.18035 -2.15428,-28.44419 -9.74665,-5.25039 -18.44537,-8.67609 -28.260506,-10.05275 z m -10.053326,49.01296 c 13.233362,0 23.951932,10.74113 23.951932,23.97373 0,13.2326 -10.71857,23.95057 -23.951932,23.95057 -13.233363,0 -23.951941,-10.71797 -23.951941,-23.95057 0,-13.2326 10.718578,-23.97373 23.951941,-23.97373 z"
       id="path4968"
       inkscape:connector-curvature="0"
       sodipodi:nodetypes="csccsccsccsccsccsccsssss"
       transform="matrix(0.38895617,0,-0.15790825,0.19343105,238.80051,981.97309)" />
    <path
       transform="matrix(0.38895617,0,-0.15790825,0.19343105,265.87511,948.80783)"
       sodipodi:nodetypes="csccsccsccsccsccsccsssss"
       inkscape:connector-curvature="0"
       id="path4970"
       d="m 99.444074,768.90221 c -4.213639,9.80585 -9.536608,18.84997 -19.64337,20.70775 -10.096885,1.85596 -18.292529,-4.68921 -25.712429,-12.3459 -8.810492,4.82125 -16.652053,11.41879 -22.886385,19.43379 6.38618,8.55216 11.552093,17.67399 8.107523,27.35553 -3.44349,9.6785 -13.208743,13.47791 -23.558144,16.07514 -0.253564,10.3092 1.68028,20.35195 5.44362,29.55601 10.59094,-1.25091 21.070605,-1.14624 27.72773,6.67096 6.659967,7.82051 5.102251,18.18417 2.177453,28.44419 9.753642,5.26161 18.42969,8.67468 28.260511,10.05275 4.213632,-9.80585 9.536601,-18.84998 19.643369,-20.70774 10.096878,-1.85597 18.292518,4.68921 25.712428,12.34588 8.81574,-4.82432 16.62716,-11.43524 22.86321,-19.45693 -6.37942,-8.54654 -11.52629,-17.65822 -8.08435,-27.33237 3.44243,-9.67555 13.18908,-13.47797 23.53497,-16.07514 0.25353,-10.30755 -1.6583,-20.35317 -5.42046,-29.55603 -10.59092,1.25092 -21.09376,1.14626 -27.75089,-6.67095 -6.66249,-7.82347 -5.08122,-18.18035 -2.15428,-28.44419 -9.74665,-5.25039 -18.44537,-8.67609 -28.260506,-10.05275 z m -10.053326,49.01296 c 13.233362,0 23.951932,10.74113 23.951932,23.97373 0,13.2326 -10.71857,23.95057 -23.951932,23.95057 -13.233363,0 -23.951941,-10.71797 -23.951941,-23.95057 0,-13.2326 10.718578,-23.97373 23.951941,-23.97373 z"
       style="color:#000000;fill:#000000;fill-opacity:0.66494847;fill-rule:evenodd;stroke:none;stroke-width:7.71407843;marker:none;visibility:visible;display:inline;overflow:visible;filter:url(#filter4950);enable-background:accumulate" />
    <path
       style="color:#000000;fill:#000000;fill-opacity:0.66494847;fill-rule:evenodd;stroke:none;stroke-width:7.71407843;marker:none;visibility:visible;display:inline;overflow:visible;filter:url(#filter4954);enable-background:accumulate"
       d="m 99.444074,768.90221 c -4.213639,9.80585 -9.536608,18.84997 -19.64337,20.70775 -10.096885,1.85596 -18.292529,-4.68921 -25.712429,-12.3459 -8.810492,4.82125 -16.652053,11.41879 -22.886385,19.43379 6.38618,8.55216 11.552093,17.67399 8.107523,27.35553 -3.44349,9.6785 -13.208743,13.47791 -23.558144,16.07514 -0.253564,10.3092 1.68028,20.35195 5.44362,29.55601 10.59094,-1.25091 21.070605,-1.14624 27.72773,6.67096 6.659967,7.82051 5.102251,18.18417 2.177453,28.44419 9.753642,5.26161 18.42969,8.67468 28.260511,10.05275 4.213632,-9.80585 9.536601,-18.84998 19.643369,-20.70774 10.096878,-1.85597 18.292518,4.68921 25.712428,12.34588 8.81574,-4.82432 16.62716,-11.43524 22.86321,-19.45693 -6.37942,-8.54654 -11.52629,-17.65822 -8.08435,-27.33237 3.44243,-9.67555 13.18908,-13.47797 23.53497,-16.07514 0.25353,-10.30755 -1.6583,-20.35317 -5.42046,-29.55603 -10.59092,1.25092 -21.09376,1.14626 -27.75089,-6.67095 -6.66249,-7.82347 -5.08122,-18.18035 -2.15428,-28.44419 -9.74665,-5.25039 -18.44537,-8.67609 -28.260506,-10.05275 z m -10.053326,49.01296 c 13.233362,0 23.951932,10.74113 23.951932,23.97373 0,13.2326 -10.71857,23.95057 -23.951932,23.95057 -13.233363,0 -23.951941,-10.71797 -23.951941,-23.95057 0,-13.2326 10.718578,-23.97373 23.951941,-23.97373 z"
       id="path4972"
       inkscape:connector-curvature="0"
       sodipodi:nodetypes="csccsccsccsccsccsccsssss"
       transform="matrix(0.38895617,0,-0.15790825,0.19343105,292.94971,915.64257)" />
    <path
       transform="matrix(0.38895617,0,0,0.38884252,93.539783,802.98318)"
       sodipodi:nodetypes="csccsccsccsccsccsccsssss"
       inkscape:connector-curvature="0"
       id="path4974"
       d="m 99.444074,768.90221 c -4.213639,9.80585 -9.536608,18.84997 -19.64337,20.70775 -10.096885,1.85596 -18.292529,-4.68921 -25.712429,-12.3459 -8.810492,4.82125 -16.652053,11.41879 -22.886385,19.43379 6.38618,8.55216 11.552093,17.67399 8.107523,27.35553 -3.44349,9.6785 -13.208743,13.47791 -23.558144,16.07514 -0.253564,10.3092 1.68028,20.35195 5.44362,29.55601 10.59094,-1.25091 21.070605,-1.14624 27.72773,6.67096 6.659967,7.82051 5.102251,18.18417 2.177453,28.44419 9.753642,5.26161 18.42969,8.67468 28.260511,10.05275 4.213632,-9.80585 9.536601,-18.84998 19.643369,-20.70774 10.096878,-1.85597 18.292518,4.68921 25.712428,12.34588 8.81574,-4.82432 16.62716,-11.43524 22.86321,-19.45693 -6.37942,-8.54654 -11.52629,-17.65822 -8.08435,-27.33237 3.44243,-9.67555 13.18908,-13.47797 23.53497,-16.07514 0.25353,-10.30755 -1.6583,-20.35317 -5.42046,-29.55603 -10.59092,1.25092 -21.09376,1.14626 -27.75089,-6.67095 -6.66249,-7.82347 -5.08122,-18.18035 -2.15428,-28.44419 -9.74665,-5.25039 -18.44537,-8.67609 -28.260506,-10.05275 z m -10.053326,49.01296 c 13.233362,0 23.951932,10.74113 23.951932,23.97373 0,13.2326 -10.71857,23.95057 -23.951932,23.95057 -13.233363,0 -23.951941,-10.71797 -23.951941,-23.95057 0,-13.2326 10.718578,-23.97373 23.951941,-23.97373 z"
       style="color:#000000;fill:url(#linearGradient4980);fill-opacity:1;fill-rule:evenodd;stroke:#16748d;stroke-width:14.25055218;stroke-miterlimit:4;stroke-opacity:1;stroke-dasharray:none;marker:none;visibility:visible;display:inline;overflow:visible;filter:url(#filter4761);enable-background:accumulate" />
    <path
       style="color:#000000;fill:url(#linearGradient4982);fill-opacity:1;fill-rule:evenodd;stroke:#16748d;stroke-width:14.25055218;stroke-miterlimit:4;stroke-opacity:1;stroke-dasharray:none;marker:none;visibility:visible;display:inline;overflow:visible;filter:url(#filter4761);enable-background:accumulate"
       d="m 99.444074,768.90221 c -4.213639,9.80585 -9.536608,18.84997 -19.64337,20.70775 -10.096885,1.85596 -18.292529,-4.68921 -25.712429,-12.3459 -8.810492,4.82125 -16.652053,11.41879 -22.886385,19.43379 6.38618,8.55216 11.552093,17.67399 8.107523,27.35553 -3.44349,9.6785 -13.208743,13.47791 -23.558144,16.07514 -0.253564,10.3092 1.68028,20.35195 5.44362,29.55601 10.59094,-1.25091 21.070605,-1.14624 27.72773,6.67096 6.659967,7.82051 5.102251,18.18417 2.177453,28.44419 9.753642,5.26161 18.42969,8.67468 28.260511,10.05275 4.213632,-9.80585 9.536601,-18.84998 19.643369,-20.70774 10.096878,-1.85597 18.292518,4.68921 25.712428,12.34588 8.81574,-4.82432 16.62716,-11.43524 22.86321,-19.45693 -6.37942,-8.54654 -11.52629,-17.65822 -8.08435,-27.33237 3.44243,-9.67555 13.18908,-13.47797 23.53497,-16.07514 0.25353,-10.30755 -1.6583,-20.35317 -5.42046,-29.55603 -10.59092,1.25092 -21.09376,1.14626 -27.75089,-6.67095 -6.66249,-7.82347 -5.08122,-18.18035 -2.15428,-28.44419 -9.74665,-5.25039 -18.44537,-8.67609 -28.260506,-10.05275 z m -10.053326,49.01296 c 13.233362,0 23.951932,10.74113 23.951932,23.97373 0,13.2326 -10.71857,23.95057 -23.951932,23.95057 -13.233363,0 -23.951941,-10.71797 -23.951941,-23.95057 0,-13.2326 10.718578,-23.97373 23.951941,-23.97373 z"
       id="path4976"
       inkscape:connector-curvature="0"
       sodipodi:nodetypes="csccsccsccsccsccsccsssss"
       transform="matrix(0.38895617,0,0,0.38884252,93.539783,736.31311)" />
    <path
       transform="matrix(0.38895617,0,0,0.38884252,93.539783,669.64303)"
       sodipodi:nodetypes="csccsccsccsccsccsccsssss"
       inkscape:connector-curvature="0"
       id="path4978"
       d="m 99.444074,768.90221 c -4.213639,9.80585 -9.536608,18.84997 -19.64337,20.70775 -10.096885,1.85596 -18.292529,-4.68921 -25.712429,-12.3459 -8.810492,4.82125 -16.652053,11.41879 -22.886385,19.43379 6.38618,8.55216 11.552093,17.67399 8.107523,27.35553 -3.44349,9.6785 -13.208743,13.47791 -23.558144,16.07514 -0.253564,10.3092 1.68028,20.35195 5.44362,29.55601 10.59094,-1.25091 21.070605,-1.14624 27.72773,6.67096 6.659967,7.82051 5.102251,18.18417 2.177453,28.44419 9.753642,5.26161 18.42969,8.67468 28.260511,10.05275 4.213632,-9.80585 9.536601,-18.84998 19.643369,-20.70774 10.096878,-1.85597 18.292518,4.68921 25.712428,12.34588 8.81574,-4.82432 16.62716,-11.43524 22.86321,-19.45693 -6.37942,-8.54654 -11.52629,-17.65822 -8.08435,-27.33237 3.44243,-9.67555 13.18908,-13.47797 23.53497,-16.07514 0.25353,-10.30755 -1.6583,-20.35317 -5.42046,-29.55603 -10.59092,1.25092 -21.09376,1.14626 -27.75089,-6.67095 -6.66249,-7.82347 -5.08122,-18.18035 -2.15428,-28.44419 -9.74665,-5.25039 -18.44537,-8.67609 -28.260506,-10.05275 z m -10.053326,49.01296 c 13.233362,0 23.951932,10.74113 23.951932,23.97373 0,13.2326 -10.71857,23.95057 -23.951932,23.95057 -13.233363,0 -23.951941,-10.71797 -23.951941,-23.95057 0,-13.2326 10.718578,-23.97373 23.951941,-23.97373 z"
       style="color:#000000;fill:url(#linearGradient4984);fill-opacity:1;fill-rule:evenodd;stroke:#16748d;stroke-width:14.25055218;stroke-miterlimit:4;stroke-opacity:1;stroke-dasharray:none;marker:none;visibility:visible;display:inline;overflow:visible;filter:url(#filter4761);enable-background:accumulate" />
  </g>
  <g
     transform="matrix(0.32639357,0,0,0.32639357,176.05518,651.18386)"
     id="g4998"
     style="filter:url(#filter5026)">
    <path
       transform="matrix(0.38895617,0,-0.15790825,0.19343105,238.80051,981.97309)"
       sodipodi:nodetypes="csccsccsccsccsccsccsssss"
       inkscape:connector-curvature="0"
       id="path5000"
       d="m 99.444074,768.90221 c -4.213639,9.80585 -9.536608,18.84997 -19.64337,20.70775 -10.096885,1.85596 -18.292529,-4.68921 -25.712429,-12.3459 -8.810492,4.82125 -16.652053,11.41879 -22.886385,19.43379 6.38618,8.55216 11.552093,17.67399 8.107523,27.35553 -3.44349,9.6785 -13.208743,13.47791 -23.558144,16.07514 -0.253564,10.3092 1.68028,20.35195 5.44362,29.55601 10.59094,-1.25091 21.070605,-1.14624 27.72773,6.67096 6.659967,7.82051 5.102251,18.18417 2.177453,28.44419 9.753642,5.26161 18.42969,8.67468 28.260511,10.05275 4.213632,-9.80585 9.536601,-18.84998 19.643369,-20.70774 10.096878,-1.85597 18.292518,4.68921 25.712428,12.34588 8.81574,-4.82432 16.62716,-11.43524 22.86321,-19.45693 -6.37942,-8.54654 -11.52629,-17.65822 -8.08435,-27.33237 3.44243,-9.67555 13.18908,-13.47797 23.53497,-16.07514 0.25353,-10.30755 -1.6583,-20.35317 -5.42046,-29.55603 -10.59092,1.25092 -21.09376,1.14626 -27.75089,-6.67095 -6.66249,-7.82347 -5.08122,-18.18035 -2.15428,-28.44419 -9.74665,-5.25039 -18.44537,-8.67609 -28.260506,-10.05275 z m -10.053326,49.01296 c 13.233362,0 23.951932,10.74113 23.951932,23.97373 0,13.2326 -10.71857,23.95057 -23.951932,23.95057 -13.233363,0 -23.951941,-10.71797 -23.951941,-23.95057 0,-13.2326 10.718578,-23.97373 23.951941,-23.97373 z"
       style="color:#000000;fill:#000000;fill-opacity:0.66494847;fill-rule:evenodd;stroke:none;stroke-width:7.71407843;marker:none;visibility:visible;display:inline;overflow:visible;filter:url(#filter4946);enable-background:accumulate" />
    <path
       style="color:#000000;fill:#000000;fill-opacity:0.66494847;fill-rule:evenodd;stroke:none;stroke-width:7.71407843;marker:none;visibility:visible;display:inline;overflow:visible;filter:url(#filter4950);enable-background:accumulate"
       d="m 99.444074,768.90221 c -4.213639,9.80585 -9.536608,18.84997 -19.64337,20.70775 -10.096885,1.85596 -18.292529,-4.68921 -25.712429,-12.3459 -8.810492,4.82125 -16.652053,11.41879 -22.886385,19.43379 6.38618,8.55216 11.552093,17.67399 8.107523,27.35553 -3.44349,9.6785 -13.208743,13.47791 -23.558144,16.07514 -0.253564,10.3092 1.68028,20.35195 5.44362,29.55601 10.59094,-1.25091 21.070605,-1.14624 27.72773,6.67096 6.659967,7.82051 5.102251,18.18417 2.177453,28.44419 9.753642,5.26161 18.42969,8.67468 28.260511,10.05275 4.213632,-9.80585 9.536601,-18.84998 19.643369,-20.70774 10.096878,-1.85597 18.292518,4.68921 25.712428,12.34588 8.81574,-4.82432 16.62716,-11.43524 22.86321,-19.45693 -6.37942,-8.54654 -11.52629,-17.65822 -8.08435,-27.33237 3.44243,-9.67555 13.18908,-13.47797 23.53497,-16.07514 0.25353,-10.30755 -1.6583,-20.35317 -5.42046,-29.55603 -10.59092,1.25092 -21.09376,1.14626 -27.75089,-6.67095 -6.66249,-7.82347 -5.08122,-18.18035 -2.15428,-28.44419 -9.74665,-5.25039 -18.44537,-8.67609 -28.260506,-10.05275 z m -10.053326,49.01296 c 13.233362,0 23.951932,10.74113 23.951932,23.97373 0,13.2326 -10.71857,23.95057 -23.951932,23.95057 -13.233363,0 -23.951941,-10.71797 -23.951941,-23.95057 0,-13.2326 10.718578,-23.97373 23.951941,-23.97373 z"
       id="path5002"
       inkscape:connector-curvature="0"
       sodipodi:nodetypes="csccsccsccsccsccsccsssss"
       transform="matrix(0.38895617,0,-0.15790825,0.19343105,265.87511,948.80783)" />
    <path
       transform="matrix(0.38895617,0,-0.15790825,0.19343105,292.94971,915.64257)"
       sodipodi:nodetypes="csccsccsccsccsccsccsssss"
       inkscape:connector-curvature="0"
       id="path5004"
       d="m 99.444074,768.90221 c -4.213639,9.80585 -9.536608,18.84997 -19.64337,20.70775 -10.096885,1.85596 -18.292529,-4.68921 -25.712429,-12.3459 -8.810492,4.82125 -16.652053,11.41879 -22.886385,19.43379 6.38618,8.55216 11.552093,17.67399 8.107523,27.35553 -3.44349,9.6785 -13.208743,13.47791 -23.558144,16.07514 -0.253564,10.3092 1.68028,20.35195 5.44362,29.55601 10.59094,-1.25091 21.070605,-1.14624 27.72773,6.67096 6.659967,7.82051 5.102251,18.18417 2.177453,28.44419 9.753642,5.26161 18.42969,8.67468 28.260511,10.05275 4.213632,-9.80585 9.536601,-18.84998 19.643369,-20.70774 10.096878,-1.85597 18.292518,4.68921 25.712428,12.34588 8.81574,-4.82432 16.62716,-11.43524 22.86321,-19.45693 -6.37942,-8.54654 -11.52629,-17.65822 -8.08435,-27.33237 3.44243,-9.67555 13.18908,-13.47797 23.53497,-16.07514 0.25353,-10.30755 -1.6583,-20.35317 -5.42046,-29.55603 -10.59092,1.25092 -21.09376,1.14626 -27.75089,-6.67095 -6.66249,-7.82347 -5.08122,-18.18035 -2.15428,-28.44419 -9.74665,-5.25039 -18.44537,-8.67609 -28.260506,-10.05275 z m -10.053326,49.01296 c 13.233362,0 23.951932,10.74113 23.951932,23.97373 0,13.2326 -10.71857,23.95057 -23.951932,23.95057 -13.233363,0 -23.951941,-10.71797 -23.951941,-23.95057 0,-13.2326 10.718578,-23.97373 23.951941,-23.97373 z"
       style="color:#000000;fill:#000000;fill-opacity:0.66494847;fill-rule:evenodd;stroke:none;stroke-width:7.71407843;marker:none;visibility:visible;display:inline;overflow:visible;filter:url(#filter4954);enable-background:accumulate" />
    <path
       style="color:#000000;fill:url(#linearGradient5012);fill-opacity:1;fill-rule:evenodd;stroke:#16748d;stroke-width:23.63428497;stroke-miterlimit:4;stroke-opacity:1;stroke-dasharray:none;marker:none;visibility:visible;display:inline;overflow:visible;filter:url(#filter4761);enable-background:accumulate"
       d="m 99.444074,768.90221 c -4.213639,9.80585 -9.536608,18.84997 -19.64337,20.70775 -10.096885,1.85596 -18.292529,-4.68921 -25.712429,-12.3459 -8.810492,4.82125 -16.652053,11.41879 -22.886385,19.43379 6.38618,8.55216 11.552093,17.67399 8.107523,27.35553 -3.44349,9.6785 -13.208743,13.47791 -23.558144,16.07514 -0.253564,10.3092 1.68028,20.35195 5.44362,29.55601 10.59094,-1.25091 21.070605,-1.14624 27.72773,6.67096 6.659967,7.82051 5.102251,18.18417 2.177453,28.44419 9.753642,5.26161 18.42969,8.67468 28.260511,10.05275 4.213632,-9.80585 9.536601,-18.84998 19.643369,-20.70774 10.096878,-1.85597 18.292518,4.68921 25.712428,12.34588 8.81574,-4.82432 16.62716,-11.43524 22.86321,-19.45693 -6.37942,-8.54654 -11.52629,-17.65822 -8.08435,-27.33237 3.44243,-9.67555 13.18908,-13.47797 23.53497,-16.07514 0.25353,-10.30755 -1.6583,-20.35317 -5.42046,-29.55603 -10.59092,1.25092 -21.09376,1.14626 -27.75089,-6.67095 -6.66249,-7.82347 -5.08122,-18.18035 -2.15428,-28.44419 -9.74665,-5.25039 -18.44537,-8.67609 -28.260506,-10.05275 z m -10.053326,49.01296 c 13.233362,0 23.951932,10.74113 23.951932,23.97373 0,13.2326 -10.71857,23.95057 -23.951932,23.95057 -13.233363,0 -23.951941,-10.71797 -23.951941,-23.95057 0,-13.2326 10.718578,-23.97373 23.951941,-23.97373 z"
       id="path5006"
       inkscape:connector-curvature="0"
       sodipodi:nodetypes="csccsccsccsccsccsccsssss"
       transform="matrix(0.38895617,0,0,0.38884252,93.539783,802.98318)" />
    <path
       transform="matrix(0.38895617,0,0,0.38884252,93.539783,736.31311)"
       sodipodi:nodetypes="csccsccsccsccsccsccsssss"
       inkscape:connector-curvature="0"
       id="path5008"
       d="m 99.444074,768.90221 c -4.213639,9.80585 -9.536608,18.84997 -19.64337,20.70775 -10.096885,1.85596 -18.292529,-4.68921 -25.712429,-12.3459 -8.810492,4.82125 -16.652053,11.41879 -22.886385,19.43379 6.38618,8.55216 11.552093,17.67399 8.107523,27.35553 -3.44349,9.6785 -13.208743,13.47791 -23.558144,16.07514 -0.253564,10.3092 1.68028,20.35195 5.44362,29.55601 10.59094,-1.25091 21.070605,-1.14624 27.72773,6.67096 6.659967,7.82051 5.102251,18.18417 2.177453,28.44419 9.753642,5.26161 18.42969,8.67468 28.260511,10.05275 4.213632,-9.80585 9.536601,-18.84998 19.643369,-20.70774 10.096878,-1.85597 18.292518,4.68921 25.712428,12.34588 8.81574,-4.82432 16.62716,-11.43524 22.86321,-19.45693 -6.37942,-8.54654 -11.52629,-17.65822 -8.08435,-27.33237 3.44243,-9.67555 13.18908,-13.47797 23.53497,-16.07514 0.25353,-10.30755 -1.6583,-20.35317 -5.42046,-29.55603 -10.59092,1.25092 -21.09376,1.14626 -27.75089,-6.67095 -6.66249,-7.82347 -5.08122,-18.18035 -2.15428,-28.44419 -9.74665,-5.25039 -18.44537,-8.67609 -28.260506,-10.05275 z m -10.053326,49.01296 c 13.233362,0 23.951932,10.74113 23.951932,23.97373 0,13.2326 -10.71857,23.95057 -23.951932,23.95057 -13.233363,0 -23.951941,-10.71797 -23.951941,-23.95057 0,-13.2326 10.718578,-23.97373 23.951941,-23.97373 z"
       style="color:#000000;fill:url(#linearGradient5014);fill-opacity:1;fill-rule:evenodd;stroke:#16748d;stroke-width:23.63428497;stroke-miterlimit:4;stroke-opacity:1;stroke-dasharray:none;marker:none;visibility:visible;display:inline;overflow:visible;filter:url(#filter4761);enable-background:accumulate" />
    <path
       style="color:#000000;fill:url(#linearGradient5016);fill-opacity:1;fill-rule:evenodd;stroke:#16748d;stroke-width:23.63428497;stroke-miterlimit:4;stroke-opacity:1;stroke-dasharray:none;marker:none;visibility:visible;display:inline;overflow:visible;filter:url(#filter4761);enable-background:accumulate"
       d="m 99.444074,768.90221 c -4.213639,9.80585 -9.536608,18.84997 -19.64337,20.70775 -10.096885,1.85596 -18.292529,-4.68921 -25.712429,-12.3459 -8.810492,4.82125 -16.652053,11.41879 -22.886385,19.43379 6.38618,8.55216 11.552093,17.67399 8.107523,27.35553 -3.44349,9.6785 -13.208743,13.47791 -23.558144,16.07514 -0.253564,10.3092 1.68028,20.35195 5.44362,29.55601 10.59094,-1.25091 21.070605,-1.14624 27.72773,6.67096 6.659967,7.82051 5.102251,18.18417 2.177453,28.44419 9.753642,5.26161 18.42969,8.67468 28.260511,10.05275 4.213632,-9.80585 9.536601,-18.84998 19.643369,-20.70774 10.096878,-1.85597 18.292518,4.68921 25.712428,12.34588 8.81574,-4.82432 16.62716,-11.43524 22.86321,-19.45693 -6.37942,-8.54654 -11.52629,-17.65822 -8.08435,-27.33237 3.44243,-9.67555 13.18908,-13.47797 23.53497,-16.07514 0.25353,-10.30755 -1.6583,-20.35317 -5.42046,-29.55603 -10.59092,1.25092 -21.09376,1.14626 -27.75089,-6.67095 -6.66249,-7.82347 -5.08122,-18.18035 -2.15428,-28.44419 -9.74665,-5.25039 -18.44537,-8.67609 -28.260506,-10.05275 z m -10.053326,49.01296 c 13.233362,0 23.951932,10.74113 23.951932,23.97373 0,13.2326 -10.71857,23.95057 -23.951932,23.95057 -13.233363,0 -23.951941,-10.71797 -23.951941,-23.95057 0,-13.2326 10.718578,-23.97373 23.951941,-23.97373 z"
       id="path5010"
       inkscape:connector-curvature="0"
       sodipodi:nodetypes="csccsccsccsccsccsccsssss"
       transform="matrix(0.38895617,0,0,0.38884252,93.539783,669.64303)" />
  </g>
  <g
     id="g5030"
     transform="matrix(0.1560857,0,0,0.1560857,35.041855,813.14247)"
     style="filter:url(#filter5058)">
    <path
       style="color:#000000;fill:#000000;fill-opacity:0.66494847;fill-rule:evenodd;stroke:none;stroke-width:7.71407843;marker:none;visibility:visible;display:inline;overflow:visible;filter:url(#filter4946);enable-background:accumulate"
       d="m 99.444074,768.90221 c -4.213639,9.80585 -9.536608,18.84997 -19.64337,20.70775 -10.096885,1.85596 -18.292529,-4.68921 -25.712429,-12.3459 -8.810492,4.82125 -16.652053,11.41879 -22.886385,19.43379 6.38618,8.55216 11.552093,17.67399 8.107523,27.35553 -3.44349,9.6785 -13.208743,13.47791 -23.558144,16.07514 -0.253564,10.3092 1.68028,20.35195 5.44362,29.55601 10.59094,-1.25091 21.070605,-1.14624 27.72773,6.67096 6.659967,7.82051 5.102251,18.18417 2.177453,28.44419 9.753642,5.26161 18.42969,8.67468 28.260511,10.05275 4.213632,-9.80585 9.536601,-18.84998 19.643369,-20.70774 10.096878,-1.85597 18.292518,4.68921 25.712428,12.34588 8.81574,-4.82432 16.62716,-11.43524 22.86321,-19.45693 -6.37942,-8.54654 -11.52629,-17.65822 -8.08435,-27.33237 3.44243,-9.67555 13.18908,-13.47797 23.53497,-16.07514 0.25353,-10.30755 -1.6583,-20.35317 -5.42046,-29.55603 -10.59092,1.25092 -21.09376,1.14626 -27.75089,-6.67095 -6.66249,-7.82347 -5.08122,-18.18035 -2.15428,-28.44419 -9.74665,-5.25039 -18.44537,-8.67609 -28.260506,-10.05275 z m -10.053326,49.01296 c 13.233362,0 23.951932,10.74113 23.951932,23.97373 0,13.2326 -10.71857,23.95057 -23.951932,23.95057 -13.233363,0 -23.951941,-10.71797 -23.951941,-23.95057 0,-13.2326 10.718578,-23.97373 23.951941,-23.97373 z"
       id="path5032"
       inkscape:connector-curvature="0"
       sodipodi:nodetypes="csccsccsccsccsccsccsssss"
       transform="matrix(0.38895617,0,-0.15790825,0.19343105,238.80051,981.97309)" />
    <path
       transform="matrix(0.38895617,0,-0.15790825,0.19343105,265.87511,948.80783)"
       sodipodi:nodetypes="csccsccsccsccsccsccsssss"
       inkscape:connector-curvature="0"
       id="path5034"
       d="m 99.444074,768.90221 c -4.213639,9.80585 -9.536608,18.84997 -19.64337,20.70775 -10.096885,1.85596 -18.292529,-4.68921 -25.712429,-12.3459 -8.810492,4.82125 -16.652053,11.41879 -22.886385,19.43379 6.38618,8.55216 11.552093,17.67399 8.107523,27.35553 -3.44349,9.6785 -13.208743,13.47791 -23.558144,16.07514 -0.253564,10.3092 1.68028,20.35195 5.44362,29.55601 10.59094,-1.25091 21.070605,-1.14624 27.72773,6.67096 6.659967,7.82051 5.102251,18.18417 2.177453,28.44419 9.753642,5.26161 18.42969,8.67468 28.260511,10.05275 4.213632,-9.80585 9.536601,-18.84998 19.643369,-20.70774 10.096878,-1.85597 18.292518,4.68921 25.712428,12.34588 8.81574,-4.82432 16.62716,-11.43524 22.86321,-19.45693 -6.37942,-8.54654 -11.52629,-17.65822 -8.08435,-27.33237 3.44243,-9.67555 13.18908,-13.47797 23.53497,-16.07514 0.25353,-10.30755 -1.6583,-20.35317 -5.42046,-29.55603 -10.59092,1.25092 -21.09376,1.14626 -27.75089,-6.67095 -6.66249,-7.82347 -5.08122,-18.18035 -2.15428,-28.44419 -9.74665,-5.25039 -18.44537,-8.67609 -28.260506,-10.05275 z m -10.053326,49.01296 c 13.233362,0 23.951932,10.74113 23.951932,23.97373 0,13.2326 -10.71857,23.95057 -23.951932,23.95057 -13.233363,0 -23.951941,-10.71797 -23.951941,-23.95057 0,-13.2326 10.718578,-23.97373 23.951941,-23.97373 z"
       style="color:#000000;fill:#000000;fill-opacity:0.66494847;fill-rule:evenodd;stroke:none;stroke-width:7.71407843;marker:none;visibility:visible;display:inline;overflow:visible;filter:url(#filter4950);enable-background:accumulate" />
    <path
       style="color:#000000;fill:#000000;fill-opacity:0.66494847;fill-rule:evenodd;stroke:none;stroke-width:7.71407843;marker:none;visibility:visible;display:inline;overflow:visible;filter:url(#filter4954);enable-background:accumulate"
       d="m 99.444074,768.90221 c -4.213639,9.80585 -9.536608,18.84997 -19.64337,20.70775 -10.096885,1.85596 -18.292529,-4.68921 -25.712429,-12.3459 -8.810492,4.82125 -16.652053,11.41879 -22.886385,19.43379 6.38618,8.55216 11.552093,17.67399 8.107523,27.35553 -3.44349,9.6785 -13.208743,13.47791 -23.558144,16.07514 -0.253564,10.3092 1.68028,20.35195 5.44362,29.55601 10.59094,-1.25091 21.070605,-1.14624 27.72773,6.67096 6.659967,7.82051 5.102251,18.18417 2.177453,28.44419 9.753642,5.26161 18.42969,8.67468 28.260511,10.05275 4.213632,-9.80585 9.536601,-18.84998 19.643369,-20.70774 10.096878,-1.85597 18.292518,4.68921 25.712428,12.34588 8.81574,-4.82432 16.62716,-11.43524 22.86321,-19.45693 -6.37942,-8.54654 -11.52629,-17.65822 -8.08435,-27.33237 3.44243,-9.67555 13.18908,-13.47797 23.53497,-16.07514 0.25353,-10.30755 -1.6583,-20.35317 -5.42046,-29.55603 -10.59092,1.25092 -21.09376,1.14626 -27.75089,-6.67095 -6.66249,-7.82347 -5.08122,-18.18035 -2.15428,-28.44419 -9.74665,-5.25039 -18.44537,-8.67609 -28.260506,-10.05275 z m -10.053326,49.01296 c 13.233362,0 23.951932,10.74113 23.951932,23.97373 0,13.2326 -10.71857,23.95057 -23.951932,23.95057 -13.233363,0 -23.951941,-10.71797 -23.951941,-23.95057 0,-13.2326 10.718578,-23.97373 23.951941,-23.97373 z"
       id="path5036"
       inkscape:connector-curvature="0"
       sodipodi:nodetypes="csccsccsccsccsccsccsssss"
       transform="matrix(0.38895617,0,-0.15790825,0.19343105,292.94971,915.64257)" />
    <path
       transform="matrix(0.38895617,0,0,0.38884252,93.539783,802.98318)"
       sodipodi:nodetypes="csccsccsccsccsccsccsssss"
       inkscape:connector-curvature="0"
       id="path5038"
       d="m 99.444074,768.90221 c -4.213639,9.80585 -9.536608,18.84997 -19.64337,20.70775 -10.096885,1.85596 -18.292529,-4.68921 -25.712429,-12.3459 -8.810492,4.82125 -16.652053,11.41879 -22.886385,19.43379 6.38618,8.55216 11.552093,17.67399 8.107523,27.35553 -3.44349,9.6785 -13.208743,13.47791 -23.558144,16.07514 -0.253564,10.3092 1.68028,20.35195 5.44362,29.55601 10.59094,-1.25091 21.070605,-1.14624 27.72773,6.67096 6.659967,7.82051 5.102251,18.18417 2.177453,28.44419 9.753642,5.26161 18.42969,8.67468 28.260511,10.05275 4.213632,-9.80585 9.536601,-18.84998 19.643369,-20.70774 10.096878,-1.85597 18.292518,4.68921 25.712428,12.34588 8.81574,-4.82432 16.62716,-11.43524 22.86321,-19.45693 -6.37942,-8.54654 -11.52629,-17.65822 -8.08435,-27.33237 3.44243,-9.67555 13.18908,-13.47797 23.53497,-16.07514 0.25353,-10.30755 -1.6583,-20.35317 -5.42046,-29.55603 -10.59092,1.25092 -21.09376,1.14626 -27.75089,-6.67095 -6.66249,-7.82347 -5.08122,-18.18035 -2.15428,-28.44419 -9.74665,-5.25039 -18.44537,-8.67609 -28.260506,-10.05275 z m -10.053326,49.01296 c 13.233362,0 23.951932,10.74113 23.951932,23.97373 0,13.2326 -10.71857,23.95057 -23.951932,23.95057 -13.233363,0 -23.951941,-10.71797 -23.951941,-23.95057 0,-13.2326 10.718578,-23.97373 23.951941,-23.97373 z"
       style="color:#000000;fill:url(#linearGradient5044);fill-opacity:1;fill-rule:evenodd;stroke:#16748d;stroke-width:49.42207336;stroke-miterlimit:4;stroke-opacity:1;stroke-dasharray:none;marker:none;visibility:visible;display:inline;overflow:visible;filter:url(#filter4761);enable-background:accumulate" />
    <path
       style="color:#000000;fill:url(#linearGradient5046);fill-opacity:1;fill-rule:evenodd;stroke:#16748d;stroke-width:49.42207336;stroke-miterlimit:4;stroke-opacity:1;stroke-dasharray:none;marker:none;visibility:visible;display:inline;overflow:visible;filter:url(#filter4761);enable-background:accumulate"
       d="m 99.444074,768.90221 c -4.213639,9.80585 -9.536608,18.84997 -19.64337,20.70775 -10.096885,1.85596 -18.292529,-4.68921 -25.712429,-12.3459 -8.810492,4.82125 -16.652053,11.41879 -22.886385,19.43379 6.38618,8.55216 11.552093,17.67399 8.107523,27.35553 -3.44349,9.6785 -13.208743,13.47791 -23.558144,16.07514 -0.253564,10.3092 1.68028,20.35195 5.44362,29.55601 10.59094,-1.25091 21.070605,-1.14624 27.72773,6.67096 6.659967,7.82051 5.102251,18.18417 2.177453,28.44419 9.753642,5.26161 18.42969,8.67468 28.260511,10.05275 4.213632,-9.80585 9.536601,-18.84998 19.643369,-20.70774 10.096878,-1.85597 18.292518,4.68921 25.712428,12.34588 8.81574,-4.82432 16.62716,-11.43524 22.86321,-19.45693 -6.37942,-8.54654 -11.52629,-17.65822 -8.08435,-27.33237 3.44243,-9.67555 13.18908,-13.47797 23.53497,-16.07514 0.25353,-10.30755 -1.6583,-20.35317 -5.42046,-29.55603 -10.59092,1.25092 -21.09376,1.14626 -27.75089,-6.67095 -6.66249,-7.82347 -5.08122,-18.18035 -2.15428,-28.44419 -9.74665,-5.25039 -18.44537,-8.67609 -28.260506,-10.05275 z m -10.053326,49.01296 c 13.233362,0 23.951932,10.74113 23.951932,23.97373 0,13.2326 -10.71857,23.95057 -23.951932,23.95057 -13.233363,0 -23.951941,-10.71797 -23.951941,-23.95057 0,-13.2326 10.718578,-23.97373 23.951941,-23.97373 z"
       id="path5040"
       inkscape:connector-curvature="0"
       sodipodi:nodetypes="csccsccsccsccsccsccsssss"
       transform="matrix(0.38895617,0,0,0.38884252,93.539783,736.31311)" />
    <path
       transform="matrix(0.38895617,0,0,0.38884252,93.539783,669.64303)"
       sodipodi:nodetypes="csccsccsccsccsccsccsssss"
       inkscape:connector-curvature="0"
       id="path5042"
       d="m 99.444074,768.90221 c -4.213639,9.80585 -9.536608,18.84997 -19.64337,20.70775 -10.096885,1.85596 -18.292529,-4.68921 -25.712429,-12.3459 -8.810492,4.82125 -16.652053,11.41879 -22.886385,19.43379 6.38618,8.55216 11.552093,17.67399 8.107523,27.35553 -3.44349,9.6785 -13.208743,13.47791 -23.558144,16.07514 -0.253564,10.3092 1.68028,20.35195 5.44362,29.55601 10.59094,-1.25091 21.070605,-1.14624 27.72773,6.67096 6.659967,7.82051 5.102251,18.18417 2.177453,28.44419 9.753642,5.26161 18.42969,8.67468 28.260511,10.05275 4.213632,-9.80585 9.536601,-18.84998 19.643369,-20.70774 10.096878,-1.85597 18.292518,4.68921 25.712428,12.34588 8.81574,-4.82432 16.62716,-11.43524 22.86321,-19.45693 -6.37942,-8.54654 -11.52629,-17.65822 -8.08435,-27.33237 3.44243,-9.67555 13.18908,-13.47797 23.53497,-16.07514 0.25353,-10.30755 -1.6583,-20.35317 -5.42046,-29.55603 -10.59092,1.25092 -21.09376,1.14626 -27.75089,-6.67095 -6.66249,-7.82347 -5.08122,-18.18035 -2.15428,-28.44419 -9.74665,-5.25039 -18.44537,-8.67609 -28.260506,-10.05275 z m -10.053326,49.01296 c 13.233362,0 23.951932,10.74113 23.951932,23.97373 0,13.2326 -10.71857,23.95057 -23.951932,23.95057 -13.233363,0 -23.951941,-10.71797 -23.951941,-23.95057 0,-13.2326 10.718578,-23.97373 23.951941,-23.97373 z"
       style="color:#000000;fill:url(#linearGradient5048);fill-opacity:1;fill-rule:evenodd;stroke:#16748d;stroke-width:49.42207336;stroke-miterlimit:4;stroke-opacity:1;stroke-dasharray:none;marker:none;visibility:visible;display:inline;overflow:visible;filter:url(#filter4761);enable-background:accumulate" />
  </g>
</svg>
